<?xml version="1.0" encoding="UTF-8" standalone="no"?>
<!DOCTYPE svg PUBLIC "-//W3C//DTD SVG 1.1//EN"
 "http://www.w3.org/Graphics/SVG/1.1/DTD/svg11.dtd">
<!-- Generated by graphviz version 2.47.0 (20210316.0004)
 -->
<!-- Title: dependencies Pages: 1 -->
<svg width="641pt" height="284pt"
 viewBox="0.00 0.00 641.00 284.00" xmlns="http://www.w3.org/2000/svg" xmlns:xlink="http://www.w3.org/1999/xlink">
<g id="graph0" class="graph" transform="scale(1 1) rotate(0) translate(4 280)">
<title>dependencies</title>
<polygon fill="white" stroke="transparent" points="-4,4 -4,-280 637,-280 637,4 -4,4"/>
<text text-anchor="start" x="295.51" y="-42.4" font-family="Times-12" font-weight="bold" font-size="14.00">Legend</text>
<polygon fill="#ffffb3" stroke="transparent" points="82.5,-10 82.5,-30 102.5,-30 102.5,-10 82.5,-10"/>
<text text-anchor="start" x="106.13" y="-15.4" font-family="Times-12" font-size="14.00"> &#160;Declarations</text>
<polygon fill="#8dd3c7" stroke="transparent" points="195.5,-10 195.5,-30 215.5,-30 215.5,-10 195.5,-10"/>
<text text-anchor="start" x="219.23" y="-15.4" font-family="Times-12" font-size="14.00"> &#160;Module</text>
<polygon fill="#80b1d3" stroke="transparent" points="281.5,-10 281.5,-30 301.5,-30 301.5,-10 281.5,-10"/>
<text text-anchor="start" x="305.28" y="-15.4" font-family="Times-12" font-size="14.00"> &#160;Bootstrap</text>
<polygon fill="#fdb462" stroke="transparent" points="378.5,-10 378.5,-30 398.5,-30 398.5,-10 378.5,-10"/>
<text text-anchor="start" x="402.17" y="-15.4" font-family="Times-12" font-size="14.00"> &#160;Providers</text>
<polygon fill="#fb8072" stroke="transparent" points="474.5,-10 474.5,-30 494.5,-30 494.5,-10 474.5,-10"/>
<text text-anchor="start" x="498.23" y="-15.4" font-family="Times-12" font-size="14.00"> &#160;Exports</text>
<g id="clust1" class="cluster">
<title>cluster_SharedModule</title>
<polygon fill="none" stroke="black" stroke-dasharray="1,5" points="8,-70 8,-268 625,-268 625,-70 8,-70"/>
</g>
<g id="clust7" class="cluster">
<title>cluster_SharedModule_exports</title>
<polygon fill="none" stroke="black" points="76,-208 76,-260 557,-260 557,-208 76,-208"/>
</g>
<g id="clust2" class="cluster">
<title>cluster_SharedModule_declarations</title>
<polygon fill="none" stroke="black" points="146,-78 146,-130 617,-130 617,-78 146,-78"/>
</g>
<g id="clust6" class="cluster">
<title>cluster_SharedModule_imports</title>
<polygon fill="none" stroke="black" points="16,-78 16,-130 138,-130 138,-78 16,-78"/>
</g>
<!-- CardFooterComponent -->
<g id="node1" class="node">
<title>CardFooterComponent</title>
<polygon fill="#ffffb3" stroke="black" points="608.59,-122 463.41,-122 463.41,-86 608.59,-86 608.59,-122"/>
<text text-anchor="middle" x="536" y="-99.8" font-family="Times,serif" font-size="14.00">CardFooterComponent</text>
</g>
<!-- SharedModule -->
<g id="node4" class="node">
<title>SharedModule</title>
<polygon fill="#8dd3c7" stroke="black" points="355.42,-187 352.42,-191 331.42,-191 328.42,-187 256.58,-187 256.58,-151 355.42,-151 355.42,-187"/>
<text text-anchor="middle" x="306" y="-164.8" font-family="Times,serif" font-size="14.00">SharedModule</text>
</g>
<!-- CardFooterComponent&#45;&gt;SharedModule -->
<g id="edge1" class="edge">
<title>CardFooterComponent&#45;&gt;SharedModule</title>
<path fill="none" stroke="black" d="M506.38,-122.02C506.38,-139.37 506.38,-163 506.38,-163 506.38,-163 365.27,-163 365.27,-163"/>
<polygon fill="black" stroke="black" points="365.27,-159.5 355.27,-163 365.27,-166.5 365.27,-159.5"/>
</g>
<!-- CardHeaderComponent -->
<g id="node2" class="node">
<title>CardHeaderComponent</title>
<polygon fill="#ffffb3" stroke="black" points="445.46,-122 296.54,-122 296.54,-86 445.46,-86 445.46,-122"/>
<text text-anchor="middle" x="371" y="-99.8" font-family="Times,serif" font-size="14.00">CardHeaderComponent</text>
</g>
<!-- CardHeaderComponent&#45;&gt;SharedModule -->
<g id="edge2" class="edge">
<title>CardHeaderComponent&#45;&gt;SharedModule</title>
<path fill="none" stroke="black" d="M325.87,-122.11C325.87,-122.11 325.87,-140.99 325.87,-140.99"/>
<polygon fill="black" stroke="black" points="322.37,-140.99 325.87,-150.99 329.37,-140.99 322.37,-140.99"/>
</g>
<!-- SpinnerComponent -->
<g id="node3" class="node">
<title>SpinnerComponent</title>
<polygon fill="#ffffb3" stroke="black" points="278.38,-122 153.62,-122 153.62,-86 278.38,-86 278.38,-122"/>
<text text-anchor="middle" x="216" y="-99.8" font-family="Times,serif" font-size="14.00">SpinnerComponent</text>
</g>
<!-- SpinnerComponent&#45;&gt;SharedModule -->
<g id="edge3" class="edge">
<title>SpinnerComponent&#45;&gt;SharedModule</title>
<path fill="none" stroke="black" d="M267.61,-122.11C267.61,-122.11 267.61,-140.99 267.61,-140.99"/>
<polygon fill="black" stroke="black" points="264.11,-140.99 267.61,-150.99 271.11,-140.99 264.11,-140.99"/>
</g>
<!-- CardFooterComponent  -->
<g id="node6" class="node">
<title>CardFooterComponent </title>
<polygon fill="#fb8072" stroke="black" points="549.09,-252 400.91,-252 400.91,-216 549.09,-216 549.09,-252"/>
<text text-anchor="middle" x="475" y="-229.8" font-family="Times,serif" font-size="14.00">CardFooterComponent </text>
</g>
<!-- SharedModule&#45;&gt;CardFooterComponent  -->
<g id="edge5" class="edge">
<title>SharedModule&#45;&gt;CardFooterComponent </title>
<path fill="none" stroke="black" stroke-dasharray="5,2" d="M355.32,-175C387.32,-175 423.09,-175 423.09,-175 423.09,-175 423.09,-205.98 423.09,-205.98"/>
<polygon fill="black" stroke="black" points="419.59,-205.98 423.09,-215.98 426.59,-205.98 419.59,-205.98"/>
</g>
<!-- CardHeaderComponent  -->
<g id="node7" class="node">
<title>CardHeaderComponent </title>
<polygon fill="#fb8072" stroke="black" points="382.46,-252 229.54,-252 229.54,-216 382.46,-216 382.46,-252"/>
<text text-anchor="middle" x="306" y="-229.8" font-family="Times,serif" font-size="14.00">CardHeaderComponent </text>
</g>
<!-- SharedModule&#45;&gt;CardHeaderComponent  -->
<g id="edge6" class="edge">
<title>SharedModule&#45;&gt;CardHeaderComponent </title>
<path fill="none" stroke="black" stroke-dasharray="5,2" d="M306,-187.11C306,-187.11 306,-205.99 306,-205.99"/>
<polygon fill="black" stroke="black" points="302.5,-205.99 306,-215.99 309.5,-205.99 302.5,-205.99"/>
</g>
<!-- SpinnerComponent  -->
<g id="node8" class="node">
<title>SpinnerComponent </title>
<polygon fill="#fb8072" stroke="black" points="212.38,-252 83.62,-252 83.62,-216 212.38,-216 212.38,-252"/>
<text text-anchor="middle" x="148" y="-229.8" font-family="Times,serif" font-size="14.00">SpinnerComponent </text>
</g>
<!-- SharedModule&#45;&gt;SpinnerComponent  -->
<g id="edge7" class="edge">
<title>SharedModule&#45;&gt;SpinnerComponent </title>
<path fill="none" stroke="black" stroke-dasharray="5,2" d="M256.63,-175C222.38,-175 182.88,-175 182.88,-175 182.88,-175 182.88,-205.98 182.88,-205.98"/>
<polygon fill="black" stroke="black" points="179.38,-205.98 182.88,-215.98 186.38,-205.98 179.38,-205.98"/>
</g>
<!-- MaterialModule -->
<g id="node5" class="node">
<title>MaterialModule</title>
<polygon fill="#8dd3c7" stroke="black" points="130.47,-122 127.47,-126 106.47,-126 103.47,-122 23.53,-122 23.53,-86 130.47,-86 130.47,-122"/>
<text text-anchor="middle" x="77" y="-99.8" font-family="Times,serif" font-size="14.00">MaterialModule</text>
</g>
<!-- MaterialModule&#45;&gt;SharedModule -->
<g id="edge4" class="edge">
<title>MaterialModule&#45;&gt;SharedModule</title>
<path fill="none" stroke="black" d="M107.15,-122.02C107.15,-139.37 107.15,-163 107.15,-163 107.15,-163 246.59,-163 246.59,-163"/>
<polygon fill="black" stroke="black" points="246.59,-166.5 256.59,-163 246.59,-159.5 246.59,-166.5"/>
</g>
</g>
</svg>
