<?xml version="1.0" encoding="UTF-8" standalone="no"?>
<!DOCTYPE svg PUBLIC "-//W3C//DTD SVG 1.1//EN"
 "http://www.w3.org/Graphics/SVG/1.1/DTD/svg11.dtd">
<!-- Generated by graphviz version 2.47.0 (20210316.0004)
 -->
<!-- Title: dependencies Pages: 1 -->
<svg width="954pt" height="284pt"
 viewBox="0.00 0.00 954.00 284.00" xmlns="http://www.w3.org/2000/svg" xmlns:xlink="http://www.w3.org/1999/xlink">
<g id="graph0" class="graph" transform="scale(1 1) rotate(0) translate(4 280)">
<title>dependencies</title>
<polygon fill="white" stroke="transparent" points="-4,4 -4,-280 950,-280 950,4 -4,4"/>
<text text-anchor="start" x="452.01" y="-42.4" font-family="Times-12" font-weight="bold" font-size="14.00">Legend</text>
<polygon fill="#ffffb3" stroke="transparent" points="239,-10 239,-30 259,-30 259,-10 239,-10"/>
<text text-anchor="start" x="262.63" y="-15.4" font-family="Times-12" font-size="14.00"> &#160;Declarations</text>
<polygon fill="#8dd3c7" stroke="transparent" points="352,-10 352,-30 372,-30 372,-10 352,-10"/>
<text text-anchor="start" x="375.73" y="-15.4" font-family="Times-12" font-size="14.00"> &#160;Module</text>
<polygon fill="#80b1d3" stroke="transparent" points="438,-10 438,-30 458,-30 458,-10 438,-10"/>
<text text-anchor="start" x="461.78" y="-15.4" font-family="Times-12" font-size="14.00"> &#160;Bootstrap</text>
<polygon fill="#fdb462" stroke="transparent" points="535,-10 535,-30 555,-30 555,-10 535,-10"/>
<text text-anchor="start" x="558.67" y="-15.4" font-family="Times-12" font-size="14.00"> &#160;Providers</text>
<polygon fill="#fb8072" stroke="transparent" points="631,-10 631,-30 651,-30 651,-10 631,-10"/>
<text text-anchor="start" x="654.73" y="-15.4" font-family="Times-12" font-size="14.00"> &#160;Exports</text>
<g id="clust1" class="cluster">
<title>cluster_AuthModule</title>
<polygon fill="none" stroke="black" stroke-dasharray="1,5" points="8,-70 8,-268 938,-268 938,-70 8,-70"/>
</g>
<g id="clust2" class="cluster">
<title>cluster_AuthModule_declarations</title>
<polygon fill="none" stroke="black" points="414,-78 414,-130 930,-130 930,-78 414,-78"/>
</g>
<g id="clust7" class="cluster">
<title>cluster_AuthModule_imports</title>
<polygon fill="none" stroke="black" points="16,-78 16,-130 406,-130 406,-78 16,-78"/>
</g>
<g id="clust8" class="cluster">
<title>cluster_AuthModule_exports</title>
<polygon fill="none" stroke="black" points="439,-208 439,-260 529,-260 529,-208 439,-208"/>
</g>
<!-- AuthNavComponent -->
<g id="node1" class="node">
<title>AuthNavComponent</title>
<polygon fill="#ffffb3" stroke="black" points="922.15,-122 789.85,-122 789.85,-86 922.15,-86 922.15,-122"/>
<text text-anchor="middle" x="856" y="-99.8" font-family="Times,serif" font-size="14.00">AuthNavComponent</text>
</g>
<!-- AuthModule -->
<g id="node5" class="node">
<title>AuthModule</title>
<polygon fill="#8dd3c7" stroke="black" points="527.55,-187 524.55,-191 503.55,-191 500.55,-187 440.45,-187 440.45,-151 527.55,-151 527.55,-187"/>
<text text-anchor="middle" x="484" y="-164.8" font-family="Times,serif" font-size="14.00">AuthModule</text>
</g>
<!-- AuthNavComponent&#45;&gt;AuthModule -->
<g id="edge1" class="edge">
<title>AuthNavComponent&#45;&gt;AuthModule</title>
<path fill="none" stroke="black" d="M856,-122.29C856,-144.21 856,-178 856,-178 856,-178 537.77,-178 537.77,-178"/>
<polygon fill="black" stroke="black" points="537.77,-174.5 527.77,-178 537.77,-181.5 537.77,-174.5"/>
</g>
<!-- AuthPage -->
<g id="node2" class="node">
<title>AuthPage</title>
<polygon fill="#ffffb3" stroke="black" points="771.71,-122 700.29,-122 700.29,-86 771.71,-86 771.71,-122"/>
<text text-anchor="middle" x="736" y="-99.8" font-family="Times,serif" font-size="14.00">AuthPage</text>
</g>
<!-- AuthPage&#45;&gt;AuthModule -->
<g id="edge2" class="edge">
<title>AuthPage&#45;&gt;AuthModule</title>
<path fill="none" stroke="black" d="M736,-122.11C736,-141.34 736,-169 736,-169 736,-169 537.61,-169 537.61,-169"/>
<polygon fill="black" stroke="black" points="537.61,-165.5 527.61,-169 537.61,-172.5 537.61,-165.5"/>
</g>
<!-- SignInComponent -->
<g id="node3" class="node">
<title>SignInComponent</title>
<polygon fill="#ffffb3" stroke="black" points="682.17,-122 563.83,-122 563.83,-86 682.17,-86 682.17,-122"/>
<text text-anchor="middle" x="623" y="-99.8" font-family="Times,serif" font-size="14.00">SignInComponent</text>
</g>
<!-- SignInComponent&#45;&gt;AuthModule -->
<g id="edge3" class="edge">
<title>SignInComponent&#45;&gt;AuthModule</title>
<path fill="none" stroke="black" d="M623,-122.03C623,-138.4 623,-160 623,-160 623,-160 537.6,-160 537.6,-160"/>
<polygon fill="black" stroke="black" points="537.6,-156.5 527.6,-160 537.6,-163.5 537.6,-156.5"/>
</g>
<!-- SignUpComponent -->
<g id="node4" class="node">
<title>SignUpComponent</title>
<polygon fill="#ffffb3" stroke="black" points="546.11,-122 421.89,-122 421.89,-86 546.11,-86 546.11,-122"/>
<text text-anchor="middle" x="484" y="-99.8" font-family="Times,serif" font-size="14.00">SignUpComponent</text>
</g>
<!-- SignUpComponent&#45;&gt;AuthModule -->
<g id="edge4" class="edge">
<title>SignUpComponent&#45;&gt;AuthModule</title>
<path fill="none" stroke="black" d="M484,-122.11C484,-122.11 484,-140.99 484,-140.99"/>
<polygon fill="black" stroke="black" points="480.5,-140.99 484,-150.99 487.5,-140.99 480.5,-140.99"/>
</g>
<!-- AuthPage  -->
<g id="node9" class="node">
<title>AuthPage </title>
<polygon fill="#fb8072" stroke="black" points="521.21,-252 446.79,-252 446.79,-216 521.21,-216 521.21,-252"/>
<text text-anchor="middle" x="484" y="-229.8" font-family="Times,serif" font-size="14.00">AuthPage </text>
</g>
<!-- AuthModule&#45;&gt;AuthPage  -->
<g id="edge8" class="edge">
<title>AuthModule&#45;&gt;AuthPage </title>
<path fill="none" stroke="black" stroke-dasharray="5,2" d="M484,-187.11C484,-187.11 484,-205.99 484,-205.99"/>
<polygon fill="black" stroke="black" points="480.5,-205.99 484,-215.99 487.5,-205.99 480.5,-205.99"/>
</g>
<!-- AuthRoutingModule -->
<g id="node6" class="node">
<title>AuthRoutingModule</title>
<polygon fill="#8dd3c7" stroke="black" points="398.17,-122 395.17,-126 374.17,-126 371.17,-122 265.83,-122 265.83,-86 398.17,-86 398.17,-122"/>
<text text-anchor="middle" x="332" y="-99.8" font-family="Times,serif" font-size="14.00">AuthRoutingModule</text>
</g>
<!-- AuthRoutingModule&#45;&gt;AuthModule -->
<g id="edge5" class="edge">
<title>AuthRoutingModule&#45;&gt;AuthModule</title>
<path fill="none" stroke="black" d="M332,-122.03C332,-138.4 332,-160 332,-160 332,-160 430.44,-160 430.44,-160"/>
<polygon fill="black" stroke="black" points="430.44,-163.5 440.44,-160 430.44,-156.5 430.44,-163.5"/>
</g>
<!-- MaterialModule -->
<g id="node7" class="node">
<title>MaterialModule</title>
<polygon fill="#8dd3c7" stroke="black" points="247.47,-122 244.47,-126 223.47,-126 220.47,-122 140.53,-122 140.53,-86 247.47,-86 247.47,-122"/>
<text text-anchor="middle" x="194" y="-99.8" font-family="Times,serif" font-size="14.00">MaterialModule</text>
</g>
<!-- MaterialModule&#45;&gt;AuthModule -->
<g id="edge6" class="edge">
<title>MaterialModule&#45;&gt;AuthModule</title>
<path fill="none" stroke="black" d="M194,-122.11C194,-141.34 194,-169 194,-169 194,-169 430.27,-169 430.27,-169"/>
<polygon fill="black" stroke="black" points="430.27,-172.5 440.27,-169 430.27,-165.5 430.27,-172.5"/>
</g>
<!-- SharedModule -->
<g id="node8" class="node">
<title>SharedModule</title>
<polygon fill="#8dd3c7" stroke="black" points="122.42,-122 119.42,-126 98.42,-126 95.42,-122 23.58,-122 23.58,-86 122.42,-86 122.42,-122"/>
<text text-anchor="middle" x="73" y="-99.8" font-family="Times,serif" font-size="14.00">SharedModule</text>
</g>
<!-- SharedModule&#45;&gt;AuthModule -->
<g id="edge7" class="edge">
<title>SharedModule&#45;&gt;AuthModule</title>
<path fill="none" stroke="black" d="M73,-122.29C73,-144.21 73,-178 73,-178 73,-178 430.4,-178 430.4,-178"/>
<polygon fill="black" stroke="black" points="430.4,-181.5 440.4,-178 430.4,-174.5 430.4,-181.5"/>
</g>
</g>
</svg>
