<?xml version="1.0" encoding="UTF-8" standalone="no"?>
<!DOCTYPE svg PUBLIC "-//W3C//DTD SVG 1.1//EN"
 "http://www.w3.org/Graphics/SVG/1.1/DTD/svg11.dtd">
<!-- Generated by graphviz version 2.47.0 (20210316.0004)
 -->
<!-- Title: dependencies Pages: 1 -->
<svg width="504pt" height="284pt"
 viewBox="0.00 0.00 504.00 284.00" xmlns="http://www.w3.org/2000/svg" xmlns:xlink="http://www.w3.org/1999/xlink">
<g id="graph0" class="graph" transform="scale(1 1) rotate(0) translate(4 280)">
<title>dependencies</title>
<polygon fill="white" stroke="transparent" points="-4,4 -4,-280 500,-280 500,4 -4,4"/>
<text text-anchor="start" x="227.01" y="-42.4" font-family="Times-12" font-weight="bold" font-size="14.00">Legend</text>
<polygon fill="#ffffb3" stroke="transparent" points="14,-10 14,-30 34,-30 34,-10 14,-10"/>
<text text-anchor="start" x="37.63" y="-15.4" font-family="Times-12" font-size="14.00"> &#160;Declarations</text>
<polygon fill="#8dd3c7" stroke="transparent" points="127,-10 127,-30 147,-30 147,-10 127,-10"/>
<text text-anchor="start" x="150.73" y="-15.4" font-family="Times-12" font-size="14.00"> &#160;Module</text>
<polygon fill="#80b1d3" stroke="transparent" points="213,-10 213,-30 233,-30 233,-10 213,-10"/>
<text text-anchor="start" x="236.78" y="-15.4" font-family="Times-12" font-size="14.00"> &#160;Bootstrap</text>
<polygon fill="#fdb462" stroke="transparent" points="310,-10 310,-30 330,-30 330,-10 310,-10"/>
<text text-anchor="start" x="333.67" y="-15.4" font-family="Times-12" font-size="14.00"> &#160;Providers</text>
<polygon fill="#fb8072" stroke="transparent" points="406,-10 406,-30 426,-30 426,-10 406,-10"/>
<text text-anchor="start" x="429.73" y="-15.4" font-family="Times-12" font-size="14.00"> &#160;Exports</text>
<g id="clust1" class="cluster">
<title>cluster_DefinitionModule</title>
<polygon fill="none" stroke="black" stroke-dasharray="1,5" points="58.5,-70 58.5,-268 437.5,-268 437.5,-70 58.5,-70"/>
</g>
<g id="clust5" class="cluster">
<title>cluster_DefinitionModule_exports</title>
<polygon fill="none" stroke="black" points="187.5,-208 187.5,-260 307.5,-260 307.5,-208 187.5,-208"/>
</g>
<g id="clust4" class="cluster">
<title>cluster_DefinitionModule_imports</title>
<polygon fill="none" stroke="black" points="190.5,-78 190.5,-130 429.5,-130 429.5,-78 190.5,-78"/>
</g>
<g id="clust2" class="cluster">
<title>cluster_DefinitionModule_declarations</title>
<polygon fill="none" stroke="black" points="66.5,-78 66.5,-130 182.5,-130 182.5,-78 66.5,-78"/>
</g>
<!-- DefinitionPage -->
<g id="node1" class="node">
<title>DefinitionPage</title>
<polygon fill="#ffffb3" stroke="black" points="174.76,-122 74.24,-122 74.24,-86 174.76,-86 174.76,-122"/>
<text text-anchor="middle" x="124.5" y="-99.8" font-family="Times,serif" font-size="14.00">DefinitionPage</text>
</g>
<!-- DefinitionModule -->
<g id="node2" class="node">
<title>DefinitionModule</title>
<polygon fill="#8dd3c7" stroke="black" points="306.09,-187 303.09,-191 282.09,-191 279.09,-187 188.91,-187 188.91,-151 306.09,-151 306.09,-187"/>
<text text-anchor="middle" x="247.5" y="-164.8" font-family="Times,serif" font-size="14.00">DefinitionModule</text>
</g>
<!-- DefinitionPage&#45;&gt;DefinitionModule -->
<g id="edge1" class="edge">
<title>DefinitionPage&#45;&gt;DefinitionModule</title>
<path fill="none" stroke="black" d="M175.1,-104C185.64,-104 193.62,-104 193.62,-104 193.62,-104 193.62,-140.89 193.62,-140.89"/>
<polygon fill="black" stroke="black" points="190.12,-140.89 193.62,-150.89 197.12,-140.89 190.12,-140.89"/>
</g>
<!-- DefinitionPage  -->
<g id="node5" class="node">
<title>DefinitionPage </title>
<polygon fill="#fb8072" stroke="black" points="299.76,-252 195.24,-252 195.24,-216 299.76,-216 299.76,-252"/>
<text text-anchor="middle" x="247.5" y="-229.8" font-family="Times,serif" font-size="14.00">DefinitionPage </text>
</g>
<!-- DefinitionModule&#45;&gt;DefinitionPage  -->
<g id="edge4" class="edge">
<title>DefinitionModule&#45;&gt;DefinitionPage </title>
<path fill="none" stroke="black" stroke-dasharray="5,2" d="M247.5,-187.11C247.5,-187.11 247.5,-205.99 247.5,-205.99"/>
<polygon fill="black" stroke="black" points="244,-205.99 247.5,-215.99 251,-205.99 244,-205.99"/>
</g>
<!-- MaterialModule -->
<g id="node3" class="node">
<title>MaterialModule</title>
<polygon fill="#8dd3c7" stroke="black" points="421.97,-122 418.97,-126 397.97,-126 394.97,-122 315.03,-122 315.03,-86 421.97,-86 421.97,-122"/>
<text text-anchor="middle" x="368.5" y="-99.8" font-family="Times,serif" font-size="14.00">MaterialModule</text>
</g>
<!-- MaterialModule&#45;&gt;DefinitionModule -->
<g id="edge2" class="edge">
<title>MaterialModule&#45;&gt;DefinitionModule</title>
<path fill="none" stroke="black" d="M314.96,-104C306.99,-104 301.38,-104 301.38,-104 301.38,-104 301.38,-140.89 301.38,-140.89"/>
<polygon fill="black" stroke="black" points="297.88,-140.89 301.38,-150.89 304.88,-140.89 297.88,-140.89"/>
</g>
<!-- SharedModule -->
<g id="node4" class="node">
<title>SharedModule</title>
<polygon fill="#8dd3c7" stroke="black" points="296.92,-122 293.92,-126 272.92,-126 269.92,-122 198.08,-122 198.08,-86 296.92,-86 296.92,-122"/>
<text text-anchor="middle" x="247.5" y="-99.8" font-family="Times,serif" font-size="14.00">SharedModule</text>
</g>
<!-- SharedModule&#45;&gt;DefinitionModule -->
<g id="edge3" class="edge">
<title>SharedModule&#45;&gt;DefinitionModule</title>
<path fill="none" stroke="black" d="M247.5,-122.11C247.5,-122.11 247.5,-140.99 247.5,-140.99"/>
<polygon fill="black" stroke="black" points="244,-140.99 247.5,-150.99 251,-140.99 244,-140.99"/>
</g>
</g>
</svg>
