<?xml version="1.0" encoding="UTF-8" standalone="no"?>
<!DOCTYPE svg PUBLIC "-//W3C//DTD SVG 1.1//EN"
 "http://www.w3.org/Graphics/SVG/1.1/DTD/svg11.dtd">
<!-- Generated by graphviz version 2.47.0 (20210316.0004)
 -->
<!-- Title: dependencies Pages: 1 -->
<svg width="587pt" height="284pt"
 viewBox="0.00 0.00 587.00 284.00" xmlns="http://www.w3.org/2000/svg" xmlns:xlink="http://www.w3.org/1999/xlink">
<g id="graph0" class="graph" transform="scale(1 1) rotate(0) translate(4 280)">
<title>dependencies</title>
<polygon fill="white" stroke="transparent" points="-4,4 -4,-280 583,-280 583,4 -4,4"/>
<text text-anchor="start" x="268.51" y="-42.4" font-family="Times-12" font-weight="bold" font-size="14.00">Legend</text>
<polygon fill="#ffffb3" stroke="transparent" points="55.5,-10 55.5,-30 75.5,-30 75.5,-10 55.5,-10"/>
<text text-anchor="start" x="79.13" y="-15.4" font-family="Times-12" font-size="14.00"> &#160;Declarations</text>
<polygon fill="#8dd3c7" stroke="transparent" points="168.5,-10 168.5,-30 188.5,-30 188.5,-10 168.5,-10"/>
<text text-anchor="start" x="192.23" y="-15.4" font-family="Times-12" font-size="14.00"> &#160;Module</text>
<polygon fill="#80b1d3" stroke="transparent" points="254.5,-10 254.5,-30 274.5,-30 274.5,-10 254.5,-10"/>
<text text-anchor="start" x="278.28" y="-15.4" font-family="Times-12" font-size="14.00"> &#160;Bootstrap</text>
<polygon fill="#fdb462" stroke="transparent" points="351.5,-10 351.5,-30 371.5,-30 371.5,-10 351.5,-10"/>
<text text-anchor="start" x="375.17" y="-15.4" font-family="Times-12" font-size="14.00"> &#160;Providers</text>
<polygon fill="#fb8072" stroke="transparent" points="447.5,-10 447.5,-30 467.5,-30 467.5,-10 447.5,-10"/>
<text text-anchor="start" x="471.23" y="-15.4" font-family="Times-12" font-size="14.00"> &#160;Exports</text>
<g id="clust1" class="cluster">
<title>cluster_AdminModule</title>
<polygon fill="none" stroke="black" stroke-dasharray="1,5" points="8,-70 8,-268 571,-268 571,-70 8,-70"/>
</g>
<g id="clust5" class="cluster">
<title>cluster_AdminModule_imports</title>
<polygon fill="none" stroke="black" points="324,-78 324,-130 563,-130 563,-78 324,-78"/>
</g>
<g id="clust2" class="cluster">
<title>cluster_AdminModule_declarations</title>
<polygon fill="none" stroke="black" points="16,-78 16,-130 316,-130 316,-78 16,-78"/>
</g>
<g id="clust6" class="cluster">
<title>cluster_AdminModule_exports</title>
<polygon fill="none" stroke="black" points="247,-208 247,-260 349,-260 349,-208 247,-208"/>
</g>
<!-- AdminGameFormComponent -->
<g id="node1" class="node">
<title>AdminGameFormComponent</title>
<polygon fill="#ffffb3" stroke="black" points="307.98,-122 124.02,-122 124.02,-86 307.98,-86 307.98,-122"/>
<text text-anchor="middle" x="216" y="-99.8" font-family="Times,serif" font-size="14.00">AdminGameFormComponent</text>
</g>
<!-- AdminModule -->
<g id="node3" class="node">
<title>AdminModule</title>
<polygon fill="#8dd3c7" stroke="black" points="347.44,-187 344.44,-191 323.44,-191 320.44,-187 248.56,-187 248.56,-151 347.44,-151 347.44,-187"/>
<text text-anchor="middle" x="298" y="-164.8" font-family="Times,serif" font-size="14.00">AdminModule</text>
</g>
<!-- AdminGameFormComponent&#45;&gt;AdminModule -->
<g id="edge1" class="edge">
<title>AdminGameFormComponent&#45;&gt;AdminModule</title>
<path fill="none" stroke="black" d="M278.39,-122.11C278.39,-122.11 278.39,-140.99 278.39,-140.99"/>
<polygon fill="black" stroke="black" points="274.89,-140.99 278.39,-150.99 281.89,-140.99 274.89,-140.99"/>
</g>
<!-- AdminPage -->
<g id="node2" class="node">
<title>AdminPage</title>
<polygon fill="#ffffb3" stroke="black" points="106.1,-122 23.9,-122 23.9,-86 106.1,-86 106.1,-122"/>
<text text-anchor="middle" x="65" y="-99.8" font-family="Times,serif" font-size="14.00">AdminPage</text>
</g>
<!-- AdminPage&#45;&gt;AdminModule -->
<g id="edge2" class="edge">
<title>AdminPage&#45;&gt;AdminModule</title>
<path fill="none" stroke="black" d="M65,-122.11C65,-141.34 65,-169 65,-169 65,-169 238.59,-169 238.59,-169"/>
<polygon fill="black" stroke="black" points="238.59,-172.5 248.59,-169 238.59,-165.5 238.59,-172.5"/>
</g>
<!-- AdminPage  -->
<g id="node6" class="node">
<title>AdminPage </title>
<polygon fill="#fb8072" stroke="black" points="340.6,-252 255.4,-252 255.4,-216 340.6,-216 340.6,-252"/>
<text text-anchor="middle" x="298" y="-229.8" font-family="Times,serif" font-size="14.00">AdminPage </text>
</g>
<!-- AdminModule&#45;&gt;AdminPage  -->
<g id="edge5" class="edge">
<title>AdminModule&#45;&gt;AdminPage </title>
<path fill="none" stroke="black" stroke-dasharray="5,2" d="M298,-187.11C298,-187.11 298,-205.99 298,-205.99"/>
<polygon fill="black" stroke="black" points="294.5,-205.99 298,-215.99 301.5,-205.99 294.5,-205.99"/>
</g>
<!-- MaterialModule -->
<g id="node4" class="node">
<title>MaterialModule</title>
<polygon fill="#8dd3c7" stroke="black" points="555.47,-122 552.47,-126 531.47,-126 528.47,-122 448.53,-122 448.53,-86 555.47,-86 555.47,-122"/>
<text text-anchor="middle" x="502" y="-99.8" font-family="Times,serif" font-size="14.00">MaterialModule</text>
</g>
<!-- MaterialModule&#45;&gt;AdminModule -->
<g id="edge3" class="edge">
<title>MaterialModule&#45;&gt;AdminModule</title>
<path fill="none" stroke="black" d="M502,-122.11C502,-141.34 502,-169 502,-169 502,-169 357.38,-169 357.38,-169"/>
<polygon fill="black" stroke="black" points="357.38,-165.5 347.38,-169 357.38,-172.5 357.38,-165.5"/>
</g>
<!-- SharedModule -->
<g id="node5" class="node">
<title>SharedModule</title>
<polygon fill="#8dd3c7" stroke="black" points="430.42,-122 427.42,-126 406.42,-126 403.42,-122 331.58,-122 331.58,-86 430.42,-86 430.42,-122"/>
<text text-anchor="middle" x="381" y="-99.8" font-family="Times,serif" font-size="14.00">SharedModule</text>
</g>
<!-- SharedModule&#45;&gt;AdminModule -->
<g id="edge4" class="edge">
<title>SharedModule&#45;&gt;AdminModule</title>
<path fill="none" stroke="black" d="M339.5,-122.11C339.5,-122.11 339.5,-140.99 339.5,-140.99"/>
<polygon fill="black" stroke="black" points="336,-140.99 339.5,-150.99 343,-140.99 336,-140.99"/>
</g>
</g>
</svg>
