<?xml version="1.0" encoding="UTF-8" standalone="no"?>
<!DOCTYPE svg PUBLIC "-//W3C//DTD SVG 1.1//EN"
 "http://www.w3.org/Graphics/SVG/1.1/DTD/svg11.dtd">
<!-- Generated by graphviz version 2.47.0 (20210316.0004)
 -->
<!-- Title: dependencies Pages: 1 -->
<svg width="944pt" height="211pt"
 viewBox="0.00 0.00 944.00 211.00" xmlns="http://www.w3.org/2000/svg" xmlns:xlink="http://www.w3.org/1999/xlink">
<g id="graph0" class="graph" transform="scale(1 1) rotate(0) translate(4 207)">
<title>dependencies</title>
<polygon fill="white" stroke="transparent" points="-4,4 -4,-207 940,-207 940,4 -4,4"/>
<text text-anchor="start" x="447.01" y="-42.4" font-family="Times-12" font-weight="bold" font-size="14.00">Legend</text>
<polygon fill="#ffffb3" stroke="transparent" points="234,-10 234,-30 254,-30 254,-10 234,-10"/>
<text text-anchor="start" x="257.63" y="-15.4" font-family="Times-12" font-size="14.00"> &#160;Declarations</text>
<polygon fill="#8dd3c7" stroke="transparent" points="347,-10 347,-30 367,-30 367,-10 347,-10"/>
<text text-anchor="start" x="370.73" y="-15.4" font-family="Times-12" font-size="14.00"> &#160;Module</text>
<polygon fill="#80b1d3" stroke="transparent" points="433,-10 433,-30 453,-30 453,-10 433,-10"/>
<text text-anchor="start" x="456.78" y="-15.4" font-family="Times-12" font-size="14.00"> &#160;Bootstrap</text>
<polygon fill="#fdb462" stroke="transparent" points="530,-10 530,-30 550,-30 550,-10 530,-10"/>
<text text-anchor="start" x="553.67" y="-15.4" font-family="Times-12" font-size="14.00"> &#160;Providers</text>
<polygon fill="#fb8072" stroke="transparent" points="626,-10 626,-30 646,-30 646,-10 626,-10"/>
<text text-anchor="start" x="649.73" y="-15.4" font-family="Times-12" font-size="14.00"> &#160;Exports</text>
<g id="clust1" class="cluster">
<title>cluster_WordModule</title>
<polygon fill="none" stroke="black" stroke-dasharray="1,5" points="8,-70 8,-195 928,-195 928,-70 8,-70"/>
</g>
<g id="clust3" class="cluster">
<title>cluster_WordModule_imports</title>
<polygon fill="none" stroke="black" points="16,-78 16,-130 920,-130 920,-78 16,-78"/>
</g>
<!-- AdminModule -->
<g id="node1" class="node">
<title>AdminModule</title>
<polygon fill="#8dd3c7" stroke="black" points="912.44,-122 909.44,-126 888.44,-126 885.44,-122 813.56,-122 813.56,-86 912.44,-86 912.44,-122"/>
<text text-anchor="middle" x="863" y="-99.8" font-family="Times,serif" font-size="14.00">AdminModule</text>
</g>
<!-- WordModule -->
<g id="node8" class="node">
<title>WordModule</title>
<polygon fill="#8dd3c7" stroke="black" points="535.93,-187 532.93,-191 511.93,-191 508.93,-187 444.07,-187 444.07,-151 535.93,-151 535.93,-187"/>
<text text-anchor="middle" x="490" y="-164.8" font-family="Times,serif" font-size="14.00">WordModule</text>
</g>
<!-- AdminModule&#45;&gt;WordModule -->
<g id="edge1" class="edge">
<title>AdminModule&#45;&gt;WordModule</title>
<path fill="none" stroke="black" d="M863,-122.29C863,-144.21 863,-178 863,-178 863,-178 545.74,-178 545.74,-178"/>
<polygon fill="black" stroke="black" points="545.74,-174.5 535.74,-178 545.74,-181.5 545.74,-174.5"/>
</g>
<!-- DefinitionModule -->
<g id="node2" class="node">
<title>DefinitionModule</title>
<polygon fill="#8dd3c7" stroke="black" points="795.59,-122 792.59,-126 771.59,-126 768.59,-122 678.41,-122 678.41,-86 795.59,-86 795.59,-122"/>
<text text-anchor="middle" x="737" y="-99.8" font-family="Times,serif" font-size="14.00">DefinitionModule</text>
</g>
<!-- DefinitionModule&#45;&gt;WordModule -->
<g id="edge2" class="edge">
<title>DefinitionModule&#45;&gt;WordModule</title>
<path fill="none" stroke="black" d="M737,-122.11C737,-141.34 737,-169 737,-169 737,-169 545.88,-169 545.88,-169"/>
<polygon fill="black" stroke="black" points="545.88,-165.5 535.88,-169 545.88,-172.5 545.88,-165.5"/>
</g>
<!-- LayoutModule -->
<g id="node3" class="node">
<title>LayoutModule</title>
<polygon fill="#8dd3c7" stroke="black" points="660.71,-122 657.71,-126 636.71,-126 633.71,-122 561.29,-122 561.29,-86 660.71,-86 660.71,-122"/>
<text text-anchor="middle" x="611" y="-99.8" font-family="Times,serif" font-size="14.00">LayoutModule</text>
</g>
<!-- LayoutModule&#45;&gt;WordModule -->
<g id="edge3" class="edge">
<title>LayoutModule&#45;&gt;WordModule</title>
<path fill="none" stroke="black" d="M611,-122.03C611,-138.4 611,-160 611,-160 611,-160 545.74,-160 545.74,-160"/>
<polygon fill="black" stroke="black" points="545.74,-156.5 535.74,-160 545.74,-163.5 545.74,-156.5"/>
</g>
<!-- MaterialModule -->
<g id="node4" class="node">
<title>MaterialModule</title>
<polygon fill="#8dd3c7" stroke="black" points="543.47,-122 540.47,-126 519.47,-126 516.47,-122 436.53,-122 436.53,-86 543.47,-86 543.47,-122"/>
<text text-anchor="middle" x="490" y="-99.8" font-family="Times,serif" font-size="14.00">MaterialModule</text>
</g>
<!-- MaterialModule&#45;&gt;WordModule -->
<g id="edge4" class="edge">
<title>MaterialModule&#45;&gt;WordModule</title>
<path fill="none" stroke="black" d="M490,-122.11C490,-122.11 490,-140.99 490,-140.99"/>
<polygon fill="black" stroke="black" points="486.5,-140.99 490,-150.99 493.5,-140.99 486.5,-140.99"/>
</g>
<!-- PhoneticModule -->
<g id="node5" class="node">
<title>PhoneticModule</title>
<polygon fill="#8dd3c7" stroke="black" points="418.04,-122 415.04,-126 394.04,-126 391.04,-122 309.96,-122 309.96,-86 418.04,-86 418.04,-122"/>
<text text-anchor="middle" x="364" y="-99.8" font-family="Times,serif" font-size="14.00">PhoneticModule</text>
</g>
<!-- PhoneticModule&#45;&gt;WordModule -->
<g id="edge5" class="edge">
<title>PhoneticModule&#45;&gt;WordModule</title>
<path fill="none" stroke="black" d="M364,-122.03C364,-138.4 364,-160 364,-160 364,-160 434.15,-160 434.15,-160"/>
<polygon fill="black" stroke="black" points="434.15,-163.5 444.15,-160 434.15,-156.5 434.15,-163.5"/>
</g>
<!-- SynonymModule -->
<g id="node6" class="node">
<title>SynonymModule</title>
<polygon fill="#8dd3c7" stroke="black" points="291.72,-122 288.72,-126 267.72,-126 264.72,-122 178.28,-122 178.28,-86 291.72,-86 291.72,-122"/>
<text text-anchor="middle" x="235" y="-99.8" font-family="Times,serif" font-size="14.00">SynonymModule</text>
</g>
<!-- SynonymModule&#45;&gt;WordModule -->
<g id="edge6" class="edge">
<title>SynonymModule&#45;&gt;WordModule</title>
<path fill="none" stroke="black" d="M235,-122.11C235,-141.34 235,-169 235,-169 235,-169 434.12,-169 434.12,-169"/>
<polygon fill="black" stroke="black" points="434.12,-172.5 444.12,-169 434.12,-165.5 434.12,-172.5"/>
</g>
<!-- WordRoutingModule -->
<g id="node7" class="node">
<title>WordRoutingModule</title>
<polygon fill="#8dd3c7" stroke="black" points="160.04,-122 157.04,-126 136.04,-126 133.04,-122 23.96,-122 23.96,-86 160.04,-86 160.04,-122"/>
<text text-anchor="middle" x="92" y="-99.8" font-family="Times,serif" font-size="14.00">WordRoutingModule</text>
</g>
<!-- WordRoutingModule&#45;&gt;WordModule -->
<g id="edge7" class="edge">
<title>WordRoutingModule&#45;&gt;WordModule</title>
<path fill="none" stroke="black" d="M92,-122.29C92,-144.21 92,-178 92,-178 92,-178 433.96,-178 433.96,-178"/>
<polygon fill="black" stroke="black" points="433.96,-181.5 443.96,-178 433.96,-174.5 433.96,-181.5"/>
</g>
</g>
</svg>
