<?xml version="1.0" encoding="UTF-8" standalone="no"?>
<!DOCTYPE svg PUBLIC "-//W3C//DTD SVG 1.1//EN"
 "http://www.w3.org/Graphics/SVG/1.1/DTD/svg11.dtd">
<!-- Generated by graphviz version 2.47.0 (20210316.0004)
 -->
<!-- Title: dependencies Pages: 1 -->
<svg width="766pt" height="284pt"
 viewBox="0.00 0.00 766.00 284.00" xmlns="http://www.w3.org/2000/svg" xmlns:xlink="http://www.w3.org/1999/xlink">
<g id="graph0" class="graph" transform="scale(1 1) rotate(0) translate(4 280)">
<title>dependencies</title>
<polygon fill="white" stroke="transparent" points="-4,4 -4,-280 762,-280 762,4 -4,4"/>
<text text-anchor="start" x="358.01" y="-42.4" font-family="Times-12" font-weight="bold" font-size="14.00">Legend</text>
<polygon fill="#ffffb3" stroke="transparent" points="145,-10 145,-30 165,-30 165,-10 145,-10"/>
<text text-anchor="start" x="168.63" y="-15.4" font-family="Times-12" font-size="14.00"> &#160;Declarations</text>
<polygon fill="#8dd3c7" stroke="transparent" points="258,-10 258,-30 278,-30 278,-10 258,-10"/>
<text text-anchor="start" x="281.73" y="-15.4" font-family="Times-12" font-size="14.00"> &#160;Module</text>
<polygon fill="#80b1d3" stroke="transparent" points="344,-10 344,-30 364,-30 364,-10 344,-10"/>
<text text-anchor="start" x="367.78" y="-15.4" font-family="Times-12" font-size="14.00"> &#160;Bootstrap</text>
<polygon fill="#fdb462" stroke="transparent" points="441,-10 441,-30 461,-30 461,-10 441,-10"/>
<text text-anchor="start" x="464.67" y="-15.4" font-family="Times-12" font-size="14.00"> &#160;Providers</text>
<polygon fill="#fb8072" stroke="transparent" points="537,-10 537,-30 557,-30 557,-10 537,-10"/>
<text text-anchor="start" x="560.73" y="-15.4" font-family="Times-12" font-size="14.00"> &#160;Exports</text>
<g id="clust1" class="cluster">
<title>cluster_PhoneticModule</title>
<polygon fill="none" stroke="black" stroke-dasharray="1,5" points="8,-70 8,-268 750,-268 750,-70 8,-70"/>
</g>
<g id="clust6" class="cluster">
<title>cluster_PhoneticModule_imports</title>
<polygon fill="none" stroke="black" points="503,-78 503,-130 742,-130 742,-78 503,-78"/>
</g>
<g id="clust7" class="cluster">
<title>cluster_PhoneticModule_exports</title>
<polygon fill="none" stroke="black" points="348,-208 348,-260 460,-260 460,-208 348,-208"/>
</g>
<g id="clust2" class="cluster">
<title>cluster_PhoneticModule_declarations</title>
<polygon fill="none" stroke="black" points="16,-78 16,-130 495,-130 495,-78 16,-78"/>
</g>
<!-- PhoneticAudioComponent -->
<g id="node1" class="node">
<title>PhoneticAudioComponent</title>
<polygon fill="#ffffb3" stroke="black" points="486.82,-122 321.18,-122 321.18,-86 486.82,-86 486.82,-122"/>
<text text-anchor="middle" x="404" y="-99.8" font-family="Times,serif" font-size="14.00">PhoneticAudioComponent</text>
</g>
<!-- PhoneticModule -->
<g id="node4" class="node">
<title>PhoneticModule</title>
<polygon fill="#8dd3c7" stroke="black" points="458.04,-187 455.04,-191 434.04,-191 431.04,-187 349.96,-187 349.96,-151 458.04,-151 458.04,-187"/>
<text text-anchor="middle" x="404" y="-164.8" font-family="Times,serif" font-size="14.00">PhoneticModule</text>
</g>
<!-- PhoneticAudioComponent&#45;&gt;PhoneticModule -->
<g id="edge1" class="edge">
<title>PhoneticAudioComponent&#45;&gt;PhoneticModule</title>
<path fill="none" stroke="black" d="M404,-122.11C404,-122.11 404,-140.99 404,-140.99"/>
<polygon fill="black" stroke="black" points="400.5,-140.99 404,-150.99 407.5,-140.99 400.5,-140.99"/>
</g>
<!-- PhoneticOptionComponent -->
<g id="node2" class="node">
<title>PhoneticOptionComponent</title>
<polygon fill="#ffffb3" stroke="black" points="303.71,-122 134.29,-122 134.29,-86 303.71,-86 303.71,-122"/>
<text text-anchor="middle" x="219" y="-99.8" font-family="Times,serif" font-size="14.00">PhoneticOptionComponent</text>
</g>
<!-- PhoneticOptionComponent&#45;&gt;PhoneticModule -->
<g id="edge2" class="edge">
<title>PhoneticOptionComponent&#45;&gt;PhoneticModule</title>
<path fill="none" stroke="black" d="M219,-122.02C219,-139.37 219,-163 219,-163 219,-163 339.49,-163 339.49,-163"/>
<polygon fill="black" stroke="black" points="339.49,-166.5 349.49,-163 339.49,-159.5 339.49,-166.5"/>
</g>
<!-- PhoneticPage -->
<g id="node3" class="node">
<title>PhoneticPage</title>
<polygon fill="#ffffb3" stroke="black" points="116.21,-122 23.79,-122 23.79,-86 116.21,-86 116.21,-122"/>
<text text-anchor="middle" x="70" y="-99.8" font-family="Times,serif" font-size="14.00">PhoneticPage</text>
</g>
<!-- PhoneticPage&#45;&gt;PhoneticModule -->
<g id="edge3" class="edge">
<title>PhoneticPage&#45;&gt;PhoneticModule</title>
<path fill="none" stroke="black" d="M70,-122.28C70,-143.32 70,-175 70,-175 70,-175 339.59,-175 339.59,-175"/>
<polygon fill="black" stroke="black" points="339.59,-178.5 349.59,-175 339.59,-171.5 339.59,-178.5"/>
</g>
<!-- PhoneticPage  -->
<g id="node7" class="node">
<title>PhoneticPage </title>
<polygon fill="#fb8072" stroke="black" points="451.71,-252 356.29,-252 356.29,-216 451.71,-216 451.71,-252"/>
<text text-anchor="middle" x="404" y="-229.8" font-family="Times,serif" font-size="14.00">PhoneticPage </text>
</g>
<!-- PhoneticModule&#45;&gt;PhoneticPage  -->
<g id="edge6" class="edge">
<title>PhoneticModule&#45;&gt;PhoneticPage </title>
<path fill="none" stroke="black" stroke-dasharray="5,2" d="M404,-187.11C404,-187.11 404,-205.99 404,-205.99"/>
<polygon fill="black" stroke="black" points="400.5,-205.99 404,-215.99 407.5,-205.99 400.5,-205.99"/>
</g>
<!-- MaterialModule -->
<g id="node5" class="node">
<title>MaterialModule</title>
<polygon fill="#8dd3c7" stroke="black" points="734.47,-122 731.47,-126 710.47,-126 707.47,-122 627.53,-122 627.53,-86 734.47,-86 734.47,-122"/>
<text text-anchor="middle" x="681" y="-99.8" font-family="Times,serif" font-size="14.00">MaterialModule</text>
</g>
<!-- MaterialModule&#45;&gt;PhoneticModule -->
<g id="edge4" class="edge">
<title>MaterialModule&#45;&gt;PhoneticModule</title>
<path fill="none" stroke="black" d="M681,-122.28C681,-143.32 681,-175 681,-175 681,-175 468.07,-175 468.07,-175"/>
<polygon fill="black" stroke="black" points="468.07,-171.5 458.07,-175 468.07,-178.5 468.07,-171.5"/>
</g>
<!-- SharedModule -->
<g id="node6" class="node">
<title>SharedModule</title>
<polygon fill="#8dd3c7" stroke="black" points="609.42,-122 606.42,-126 585.42,-126 582.42,-122 510.58,-122 510.58,-86 609.42,-86 609.42,-122"/>
<text text-anchor="middle" x="560" y="-99.8" font-family="Times,serif" font-size="14.00">SharedModule</text>
</g>
<!-- SharedModule&#45;&gt;PhoneticModule -->
<g id="edge5" class="edge">
<title>SharedModule&#45;&gt;PhoneticModule</title>
<path fill="none" stroke="black" d="M560,-122.02C560,-139.37 560,-163 560,-163 560,-163 468.12,-163 468.12,-163"/>
<polygon fill="black" stroke="black" points="468.12,-159.5 458.12,-163 468.12,-166.5 468.12,-159.5"/>
</g>
</g>
</svg>
