<?xml version="1.0" encoding="UTF-8" standalone="no"?>
<!DOCTYPE svg PUBLIC "-//W3C//DTD SVG 1.1//EN"
 "http://www.w3.org/Graphics/SVG/1.1/DTD/svg11.dtd">
<!-- Generated by graphviz version 2.47.0 (20210316.0004)
 -->
<!-- Title: dependencies Pages: 1 -->
<svg width="982pt" height="284pt"
 viewBox="0.00 0.00 982.00 284.00" xmlns="http://www.w3.org/2000/svg" xmlns:xlink="http://www.w3.org/1999/xlink">
<g id="graph0" class="graph" transform="scale(1 1) rotate(0) translate(4 280)">
<title>dependencies</title>
<polygon fill="white" stroke="transparent" points="-4,4 -4,-280 978,-280 978,4 -4,4"/>
<text text-anchor="start" x="466.01" y="-42.4" font-family="Times-12" font-weight="bold" font-size="14.00">Legend</text>
<polygon fill="#ffffb3" stroke="transparent" points="253,-10 253,-30 273,-30 273,-10 253,-10"/>
<text text-anchor="start" x="276.63" y="-15.4" font-family="Times-12" font-size="14.00"> &#160;Declarations</text>
<polygon fill="#8dd3c7" stroke="transparent" points="366,-10 366,-30 386,-30 386,-10 366,-10"/>
<text text-anchor="start" x="389.73" y="-15.4" font-family="Times-12" font-size="14.00"> &#160;Module</text>
<polygon fill="#80b1d3" stroke="transparent" points="452,-10 452,-30 472,-30 472,-10 452,-10"/>
<text text-anchor="start" x="475.78" y="-15.4" font-family="Times-12" font-size="14.00"> &#160;Bootstrap</text>
<polygon fill="#fdb462" stroke="transparent" points="549,-10 549,-30 569,-30 569,-10 549,-10"/>
<text text-anchor="start" x="572.67" y="-15.4" font-family="Times-12" font-size="14.00"> &#160;Providers</text>
<polygon fill="#fb8072" stroke="transparent" points="645,-10 645,-30 665,-30 665,-10 645,-10"/>
<text text-anchor="start" x="668.73" y="-15.4" font-family="Times-12" font-size="14.00"> &#160;Exports</text>
<g id="clust1" class="cluster">
<title>cluster_LayoutModule</title>
<polygon fill="none" stroke="black" stroke-dasharray="1,5" points="8,-70 8,-268 966,-268 966,-70 8,-70"/>
</g>
<g id="clust8" class="cluster">
<title>cluster_LayoutModule_imports</title>
<polygon fill="none" stroke="black" points="836,-78 836,-130 958,-130 958,-78 836,-78"/>
</g>
<g id="clust9" class="cluster">
<title>cluster_LayoutModule_exports</title>
<polygon fill="none" stroke="black" points="443,-208 443,-260 545,-260 545,-208 443,-208"/>
</g>
<g id="clust2" class="cluster">
<title>cluster_LayoutModule_declarations</title>
<polygon fill="none" stroke="black" points="16,-78 16,-130 828,-130 828,-78 16,-78"/>
</g>
<!-- LayoutFooterComponent -->
<g id="node1" class="node">
<title>LayoutFooterComponent</title>
<polygon fill="#ffffb3" stroke="black" points="819.54,-122 662.46,-122 662.46,-86 819.54,-86 819.54,-122"/>
<text text-anchor="middle" x="741" y="-99.8" font-family="Times,serif" font-size="14.00">LayoutFooterComponent</text>
</g>
<!-- LayoutModule -->
<g id="node6" class="node">
<title>LayoutModule</title>
<polygon fill="#8dd3c7" stroke="black" points="543.71,-187 540.71,-191 519.71,-191 516.71,-187 444.29,-187 444.29,-151 543.71,-151 543.71,-187"/>
<text text-anchor="middle" x="494" y="-164.8" font-family="Times,serif" font-size="14.00">LayoutModule</text>
</g>
<!-- LayoutFooterComponent&#45;&gt;LayoutModule -->
<g id="edge1" class="edge">
<title>LayoutFooterComponent&#45;&gt;LayoutModule</title>
<path fill="none" stroke="black" d="M741,-122.02C741,-139.37 741,-163 741,-163 741,-163 553.69,-163 553.69,-163"/>
<polygon fill="black" stroke="black" points="553.69,-159.5 543.69,-163 553.69,-166.5 553.69,-159.5"/>
</g>
<!-- LayoutHeaderComponent -->
<g id="node2" class="node">
<title>LayoutHeaderComponent</title>
<polygon fill="#ffffb3" stroke="black" points="644.9,-122 483.1,-122 483.1,-86 644.9,-86 644.9,-122"/>
<text text-anchor="middle" x="564" y="-99.8" font-family="Times,serif" font-size="14.00">LayoutHeaderComponent</text>
</g>
<!-- LayoutHeaderComponent&#45;&gt;LayoutModule -->
<g id="edge2" class="edge">
<title>LayoutHeaderComponent&#45;&gt;LayoutModule</title>
<path fill="none" stroke="black" d="M513.45,-122.11C513.45,-122.11 513.45,-140.99 513.45,-140.99"/>
<polygon fill="black" stroke="black" points="509.95,-140.99 513.45,-150.99 516.95,-140.99 509.95,-140.99"/>
</g>
<!-- LayoutPage -->
<g id="node3" class="node">
<title>LayoutPage</title>
<polygon fill="#ffffb3" stroke="black" points="465.37,-122 382.63,-122 382.63,-86 465.37,-86 465.37,-122"/>
<text text-anchor="middle" x="424" y="-99.8" font-family="Times,serif" font-size="14.00">LayoutPage</text>
</g>
<!-- LayoutPage&#45;&gt;LayoutModule -->
<g id="edge3" class="edge">
<title>LayoutPage&#45;&gt;LayoutModule</title>
<path fill="none" stroke="black" d="M454.92,-122.11C454.92,-122.11 454.92,-140.99 454.92,-140.99"/>
<polygon fill="black" stroke="black" points="451.42,-140.99 454.92,-150.99 458.42,-140.99 451.42,-140.99"/>
</g>
<!-- LayoutTabMenuComponent -->
<g id="node4" class="node">
<title>LayoutTabMenuComponent</title>
<polygon fill="#ffffb3" stroke="black" points="364.92,-122 189.08,-122 189.08,-86 364.92,-86 364.92,-122"/>
<text text-anchor="middle" x="277" y="-99.8" font-family="Times,serif" font-size="14.00">LayoutTabMenuComponent</text>
</g>
<!-- LayoutTabMenuComponent&#45;&gt;LayoutModule -->
<g id="edge4" class="edge">
<title>LayoutTabMenuComponent&#45;&gt;LayoutModule</title>
<path fill="none" stroke="black" d="M277,-122.02C277,-139.37 277,-163 277,-163 277,-163 434.22,-163 434.22,-163"/>
<polygon fill="black" stroke="black" points="434.22,-166.5 444.22,-163 434.22,-159.5 434.22,-166.5"/>
</g>
<!-- LayoutUserComponent -->
<g id="node5" class="node">
<title>LayoutUserComponent</title>
<polygon fill="#ffffb3" stroke="black" points="171.92,-122 24.08,-122 24.08,-86 171.92,-86 171.92,-122"/>
<text text-anchor="middle" x="98" y="-99.8" font-family="Times,serif" font-size="14.00">LayoutUserComponent</text>
</g>
<!-- LayoutUserComponent&#45;&gt;LayoutModule -->
<g id="edge5" class="edge">
<title>LayoutUserComponent&#45;&gt;LayoutModule</title>
<path fill="none" stroke="black" d="M98,-122.28C98,-143.32 98,-175 98,-175 98,-175 434.25,-175 434.25,-175"/>
<polygon fill="black" stroke="black" points="434.25,-178.5 444.25,-175 434.25,-171.5 434.25,-178.5"/>
</g>
<!-- LayoutPage  -->
<g id="node8" class="node">
<title>LayoutPage </title>
<polygon fill="#fb8072" stroke="black" points="537.37,-252 450.63,-252 450.63,-216 537.37,-216 537.37,-252"/>
<text text-anchor="middle" x="494" y="-229.8" font-family="Times,serif" font-size="14.00">LayoutPage </text>
</g>
<!-- LayoutModule&#45;&gt;LayoutPage  -->
<g id="edge7" class="edge">
<title>LayoutModule&#45;&gt;LayoutPage </title>
<path fill="none" stroke="black" stroke-dasharray="5,2" d="M494,-187.11C494,-187.11 494,-205.99 494,-205.99"/>
<polygon fill="black" stroke="black" points="490.5,-205.99 494,-215.99 497.5,-205.99 490.5,-205.99"/>
</g>
<!-- MaterialModule -->
<g id="node7" class="node">
<title>MaterialModule</title>
<polygon fill="#8dd3c7" stroke="black" points="950.47,-122 947.47,-126 926.47,-126 923.47,-122 843.53,-122 843.53,-86 950.47,-86 950.47,-122"/>
<text text-anchor="middle" x="897" y="-99.8" font-family="Times,serif" font-size="14.00">MaterialModule</text>
</g>
<!-- MaterialModule&#45;&gt;LayoutModule -->
<g id="edge6" class="edge">
<title>MaterialModule&#45;&gt;LayoutModule</title>
<path fill="none" stroke="black" d="M897,-122.28C897,-143.32 897,-175 897,-175 897,-175 553.82,-175 553.82,-175"/>
<polygon fill="black" stroke="black" points="553.82,-171.5 543.82,-175 553.82,-178.5 553.82,-171.5"/>
</g>
</g>
</svg>
