<?xml version="1.0" encoding="UTF-8" standalone="no"?>
<!DOCTYPE svg PUBLIC "-//W3C//DTD SVG 1.1//EN"
 "http://www.w3.org/Graphics/SVG/1.1/DTD/svg11.dtd">
<!-- Generated by graphviz version 2.47.0 (20210316.0004)
 -->
<!-- Title: dependencies Pages: 1 -->
<svg width="4515pt" height="358pt"
 viewBox="0.00 0.00 4515.00 358.00" xmlns="http://www.w3.org/2000/svg" xmlns:xlink="http://www.w3.org/1999/xlink">
<g id="graph0" class="graph" transform="scale(1 1) rotate(0) translate(4 354)">
<title>dependencies</title>
<polygon fill="white" stroke="transparent" points="-4,4 -4,-354 4511,-354 4511,4 -4,4"/>
<text text-anchor="start" x="2232.51" y="-42.4" font-family="Times-12" font-weight="bold" font-size="14.00">Legend</text>
<polygon fill="#ffffb3" stroke="transparent" points="2019.5,-10 2019.5,-30 2039.5,-30 2039.5,-10 2019.5,-10"/>
<text text-anchor="start" x="2043.13" y="-15.4" font-family="Times-12" font-size="14.00"> &#160;Declarations</text>
<polygon fill="#8dd3c7" stroke="transparent" points="2132.5,-10 2132.5,-30 2152.5,-30 2152.5,-10 2132.5,-10"/>
<text text-anchor="start" x="2156.23" y="-15.4" font-family="Times-12" font-size="14.00"> &#160;Module</text>
<polygon fill="#80b1d3" stroke="transparent" points="2218.5,-10 2218.5,-30 2238.5,-30 2238.5,-10 2218.5,-10"/>
<text text-anchor="start" x="2242.28" y="-15.4" font-family="Times-12" font-size="14.00"> &#160;Bootstrap</text>
<polygon fill="#fdb462" stroke="transparent" points="2315.5,-10 2315.5,-30 2335.5,-30 2335.5,-10 2315.5,-10"/>
<text text-anchor="start" x="2339.17" y="-15.4" font-family="Times-12" font-size="14.00"> &#160;Providers</text>
<polygon fill="#fb8072" stroke="transparent" points="2411.5,-10 2411.5,-30 2431.5,-30 2431.5,-10 2411.5,-10"/>
<text text-anchor="start" x="2435.23" y="-15.4" font-family="Times-12" font-size="14.00"> &#160;Exports</text>
<g id="clust1" class="cluster">
<title>cluster_AdminModule</title>
<polygon fill="none" stroke="black" stroke-dasharray="1,5" points="2667,-70 2667,-342 3119,-342 3119,-70 2667,-70"/>
</g>
<g id="clust2" class="cluster">
<title>cluster_AdminModule_declarations</title>
<polygon fill="none" stroke="black" points="2811,-146 2811,-198 3111,-198 3111,-146 2811,-146"/>
</g>
<g id="clust5" class="cluster">
<title>cluster_AdminModule_imports</title>
<polygon fill="none" stroke="black" points="2675,-78 2675,-198 2797,-198 2797,-78 2675,-78"/>
</g>
<g id="clust6" class="cluster">
<title>cluster_AdminModule_exports</title>
<polygon fill="none" stroke="black" points="2749,-282 2749,-334 2851,-334 2851,-282 2749,-282"/>
</g>
<g id="clust9" class="cluster">
<title>cluster_AppModule</title>
<polygon fill="none" stroke="black" stroke-dasharray="1,5" points="3127,-138 3127,-342 3623,-342 3623,-138 3127,-138"/>
</g>
<g id="clust10" class="cluster">
<title>cluster_AppModule_declarations</title>
<polygon fill="none" stroke="black" points="3493,-146 3493,-198 3615,-198 3615,-146 3493,-146"/>
</g>
<g id="clust12" class="cluster">
<title>cluster_AppModule_imports</title>
<polygon fill="none" stroke="black" points="3341,-146 3341,-198 3485,-198 3485,-146 3341,-146"/>
</g>
<g id="clust14" class="cluster">
<title>cluster_AppModule_bootstrap</title>
<polygon fill="none" stroke="black" points="3351,-282 3351,-334 3475,-334 3475,-282 3351,-282"/>
</g>
<g id="clust15" class="cluster">
<title>cluster_AppModule_providers</title>
<polygon fill="none" stroke="black" points="3135,-146 3135,-198 3333,-198 3333,-146 3135,-146"/>
</g>
<g id="clust22" class="cluster">
<title>cluster_AuthModule</title>
<polygon fill="none" stroke="black" stroke-dasharray="1,5" points="3811,-138 3811,-342 4499,-342 4499,-138 3811,-138"/>
</g>
<g id="clust23" class="cluster">
<title>cluster_AuthModule_declarations</title>
<polygon fill="none" stroke="black" points="3975,-146 3975,-198 4491,-198 4491,-146 3975,-146"/>
</g>
<g id="clust28" class="cluster">
<title>cluster_AuthModule_imports</title>
<polygon fill="none" stroke="black" points="3819,-146 3819,-198 3967,-198 3967,-146 3819,-146"/>
</g>
<g id="clust29" class="cluster">
<title>cluster_AuthModule_exports</title>
<polygon fill="none" stroke="black" points="4139,-282 4139,-334 4229,-334 4229,-282 4139,-282"/>
</g>
<g id="clust38" class="cluster">
<title>cluster_DefinitionModule</title>
<polygon fill="none" stroke="black" stroke-dasharray="1,5" points="1019,-138 1019,-342 1155,-342 1155,-138 1019,-138"/>
</g>
<g id="clust39" class="cluster">
<title>cluster_DefinitionModule_declarations</title>
<polygon fill="none" stroke="black" points="1027,-146 1027,-198 1143,-198 1143,-146 1027,-146"/>
</g>
<g id="clust42" class="cluster">
<title>cluster_DefinitionModule_exports</title>
<polygon fill="none" stroke="black" points="1027,-282 1027,-334 1147,-334 1147,-282 1027,-282"/>
</g>
<g id="clust45" class="cluster">
<title>cluster_LayoutModule</title>
<polygon fill="none" stroke="black" stroke-dasharray="1,5" points="184,-70 184,-274 1011,-274 1011,-70 184,-70"/>
</g>
<g id="clust46" class="cluster">
<title>cluster_LayoutModule_declarations</title>
<polygon fill="none" stroke="black" points="192,-78 192,-130 1003,-130 1003,-78 192,-78"/>
</g>
<g id="clust53" class="cluster">
<title>cluster_LayoutModule_exports</title>
<polygon fill="none" stroke="black" points="507,-214 507,-266 609,-266 609,-214 507,-214"/>
</g>
<g id="clust62" class="cluster">
<title>cluster_PhoneticModule</title>
<polygon fill="none" stroke="black" stroke-dasharray="1,5" points="1181,-138 1181,-342 1676,-342 1676,-138 1181,-138"/>
</g>
<g id="clust63" class="cluster">
<title>cluster_PhoneticModule_declarations</title>
<polygon fill="none" stroke="black" points="1189,-146 1189,-198 1668,-198 1668,-146 1189,-146"/>
</g>
<g id="clust68" class="cluster">
<title>cluster_PhoneticModule_exports</title>
<polygon fill="none" stroke="black" points="1428,-282 1428,-334 1540,-334 1540,-282 1428,-282"/>
</g>
<g id="clust71" class="cluster">
<title>cluster_SharedModule</title>
<polygon fill="none" stroke="black" stroke-dasharray="1,5" points="1684,-206 1684,-274 2659,-274 2659,-206 1684,-206"/>
</g>
<g id="clust72" class="cluster">
<title>cluster_SharedModule_declarations</title>
<polygon fill="none" stroke="black" points="2180,-214 2180,-266 2651,-266 2651,-214 2180,-214"/>
</g>
<g id="clust77" class="cluster">
<title>cluster_SharedModule_exports</title>
<polygon fill="none" stroke="black" points="1692,-214 1692,-266 2172,-266 2172,-214 1692,-214"/>
</g>
<g id="clust80" class="cluster">
<title>cluster_SynonymModule</title>
<polygon fill="none" stroke="black" stroke-dasharray="1,5" points="3653,-138 3653,-342 3785,-342 3785,-138 3653,-138"/>
</g>
<g id="clust81" class="cluster">
<title>cluster_SynonymModule_declarations</title>
<polygon fill="none" stroke="black" points="3661,-146 3661,-198 3773,-198 3773,-146 3661,-146"/>
</g>
<g id="clust84" class="cluster">
<title>cluster_SynonymModule_exports</title>
<polygon fill="none" stroke="black" points="3661,-282 3661,-334 3777,-334 3777,-282 3661,-282"/>
</g>
<g id="clust87" class="cluster">
<title>cluster_WordModule</title>
<polygon fill="none" stroke="black" stroke-dasharray="1,5" points="8,-206 8,-334 176,-334 176,-206 8,-206"/>
</g>
<g id="clust89" class="cluster">
<title>cluster_WordModule_imports</title>
<polygon fill="none" stroke="black" points="16,-214 16,-266 168,-266 168,-214 16,-214"/>
</g>
<!-- AdminGameFormComponent -->
<g id="node1" class="node">
<title>AdminGameFormComponent</title>
<polygon fill="#ffffb3" stroke="black" points="3102.98,-190 2919.02,-190 2919.02,-154 3102.98,-154 3102.98,-190"/>
<text text-anchor="middle" x="3011" y="-167.8" font-family="Times,serif" font-size="14.00">AdminGameFormComponent</text>
</g>
<!-- AdminModule -->
<g id="node3" class="node">
<title>AdminModule</title>
<polygon fill="#8dd3c7" stroke="black" points="2849.44,-258 2846.44,-262 2825.44,-262 2822.44,-258 2750.56,-258 2750.56,-222 2849.44,-222 2849.44,-258"/>
<text text-anchor="middle" x="2800" y="-235.8" font-family="Times,serif" font-size="14.00">AdminModule</text>
</g>
<!-- AdminGameFormComponent&#45;&gt;AdminModule -->
<g id="edge1" class="edge">
<title>AdminGameFormComponent&#45;&gt;AdminModule</title>
<path fill="none" stroke="black" d="M3011,-190.02C3011,-207.37 3011,-231 3011,-231 3011,-231 2859.47,-231 2859.47,-231"/>
<polygon fill="black" stroke="black" points="2859.47,-227.5 2849.47,-231 2859.47,-234.5 2859.47,-227.5"/>
</g>
<!-- AdminPage -->
<g id="node2" class="node">
<title>AdminPage</title>
<polygon fill="#ffffb3" stroke="black" points="2901.1,-190 2818.9,-190 2818.9,-154 2901.1,-154 2901.1,-190"/>
<text text-anchor="middle" x="2860" y="-167.8" font-family="Times,serif" font-size="14.00">AdminPage</text>
</g>
<!-- AdminPage&#45;&gt;AdminModule -->
<g id="edge2" class="edge">
<title>AdminPage&#45;&gt;AdminModule</title>
<path fill="none" stroke="black" d="M2834.08,-190.22C2834.08,-190.22 2834.08,-211.73 2834.08,-211.73"/>
<polygon fill="black" stroke="black" points="2830.58,-211.73 2834.08,-221.73 2837.58,-211.73 2830.58,-211.73"/>
</g>
<!-- AdminPage  -->
<g id="node6" class="node">
<title>AdminPage </title>
<polygon fill="#fb8072" stroke="black" points="2842.6,-326 2757.4,-326 2757.4,-290 2842.6,-290 2842.6,-326"/>
<text text-anchor="middle" x="2800" y="-303.8" font-family="Times,serif" font-size="14.00">AdminPage </text>
</g>
<!-- AdminModule&#45;&gt;AdminPage  -->
<g id="edge5" class="edge">
<title>AdminModule&#45;&gt;AdminPage </title>
<path fill="none" stroke="black" stroke-dasharray="5,2" d="M2814.27,-258.22C2814.27,-258.22 2814.27,-279.73 2814.27,-279.73"/>
<polygon fill="black" stroke="black" points="2810.77,-279.73 2814.27,-289.73 2817.77,-279.73 2810.77,-279.73"/>
</g>
<!-- WordModule -->
<g id="node44" class="node">
<title>WordModule</title>
<polygon fill="#8dd3c7" stroke="black" points="167.93,-326 164.93,-330 143.93,-330 140.93,-326 76.07,-326 76.07,-290 167.93,-290 167.93,-326"/>
<text text-anchor="middle" x="122" y="-303.8" font-family="Times,serif" font-size="14.00">WordModule</text>
</g>
<!-- AdminModule&#45;&gt;WordModule -->
<g id="edge48" class="edge">
<title>AdminModule&#45;&gt;WordModule</title>
<path fill="none" stroke="black" d="M2785.73,-258.06C2785.73,-269.44 2785.73,-282 2785.73,-282 2785.73,-282 165.85,-282 165.85,-282 165.85,-282 165.85,-282.79 165.85,-282.79"/>
<polygon fill="black" stroke="black" points="162.35,-279.94 165.85,-289.94 169.35,-279.94 162.35,-279.94"/>
</g>
<!-- MaterialModule -->
<g id="node4" class="node">
<title>MaterialModule</title>
<polygon fill="#8dd3c7" stroke="black" points="2789.47,-122 2786.47,-126 2765.47,-126 2762.47,-122 2682.53,-122 2682.53,-86 2789.47,-86 2789.47,-122"/>
<text text-anchor="middle" x="2736" y="-99.8" font-family="Times,serif" font-size="14.00">MaterialModule</text>
</g>
<!-- MaterialModule&#45;&gt;AdminModule -->
<g id="edge3" class="edge">
<title>MaterialModule&#45;&gt;AdminModule</title>
<path fill="none" stroke="black" d="M2785.35,-122.06C2785.35,-122.06 2785.35,-211.87 2785.35,-211.87"/>
<polygon fill="black" stroke="black" points="2781.85,-211.87 2785.35,-221.87 2788.85,-211.87 2781.85,-211.87"/>
</g>
<!-- SharedModule -->
<g id="node5" class="node">
<title>SharedModule</title>
<polygon fill="#8dd3c7" stroke="black" points="2781.42,-190 2778.42,-194 2757.42,-194 2754.42,-190 2682.58,-190 2682.58,-154 2781.42,-154 2781.42,-190"/>
<text text-anchor="middle" x="2732" y="-167.8" font-family="Times,serif" font-size="14.00">SharedModule</text>
</g>
<!-- MaterialModule&#45;&gt;SharedModule -->
<g id="edge40" class="edge">
<title>MaterialModule&#45;&gt;SharedModule</title>
<path fill="none" stroke="black" d="M2732,-122.22C2732,-122.22 2732,-143.73 2732,-143.73"/>
<polygon fill="black" stroke="black" points="2728.5,-143.73 2732,-153.73 2735.5,-143.73 2728.5,-143.73"/>
</g>
<!-- AppModule -->
<g id="node8" class="node">
<title>AppModule</title>
<polygon fill="#8dd3c7" stroke="black" points="3454.66,-258 3451.66,-262 3430.66,-262 3427.66,-258 3371.34,-258 3371.34,-222 3454.66,-222 3454.66,-258"/>
<text text-anchor="middle" x="3413" y="-235.8" font-family="Times,serif" font-size="14.00">AppModule</text>
</g>
<!-- MaterialModule&#45;&gt;AppModule -->
<g id="edge8" class="edge">
<title>MaterialModule&#45;&gt;AppModule</title>
<path fill="none" stroke="black" d="M2789.63,-113C2840.77,-113 2910.03,-113 2910.03,-113 2910.03,-113 2910.03,-249 2910.03,-249 2910.03,-249 3360.98,-249 3360.98,-249"/>
<polygon fill="black" stroke="black" points="3360.98,-252.5 3370.98,-249 3360.98,-245.5 3360.98,-252.5"/>
</g>
<!-- AuthModule -->
<g id="node16" class="node">
<title>AuthModule</title>
<polygon fill="#8dd3c7" stroke="black" points="4227.55,-258 4224.55,-262 4203.55,-262 4200.55,-258 4140.45,-258 4140.45,-222 4227.55,-222 4227.55,-258"/>
<text text-anchor="middle" x="4184" y="-235.8" font-family="Times,serif" font-size="14.00">AuthModule</text>
</g>
<!-- MaterialModule&#45;&gt;AuthModule -->
<g id="edge17" class="edge">
<title>MaterialModule&#45;&gt;AuthModule</title>
<path fill="none" stroke="black" d="M2789.87,-95C3027.6,-95 3971.14,-95 3971.14,-95 3971.14,-95 3971.14,-240 3971.14,-240 3971.14,-240 4130.41,-240 4130.41,-240"/>
<polygon fill="black" stroke="black" points="4130.41,-243.5 4140.41,-240 4130.41,-236.5 4130.41,-243.5"/>
</g>
<!-- DefinitionModule -->
<g id="node20" class="node">
<title>DefinitionModule</title>
<polygon fill="#8dd3c7" stroke="black" points="1145.59,-258 1142.59,-262 1121.59,-262 1118.59,-258 1028.41,-258 1028.41,-222 1145.59,-222 1145.59,-258"/>
<text text-anchor="middle" x="1087" y="-235.8" font-family="Times,serif" font-size="14.00">DefinitionModule</text>
</g>
<!-- MaterialModule&#45;&gt;DefinitionModule -->
<g id="edge21" class="edge">
<title>MaterialModule&#45;&gt;DefinitionModule</title>
<path fill="none" stroke="black" d="M2682.4,-108C2404.32,-108 1138.77,-108 1138.77,-108 1138.77,-108 1138.77,-211.92 1138.77,-211.92"/>
<polygon fill="black" stroke="black" points="1135.27,-211.92 1138.77,-221.92 1142.27,-211.92 1135.27,-211.92"/>
</g>
<!-- LayoutModule -->
<g id="node27" class="node">
<title>LayoutModule</title>
<polygon fill="#8dd3c7" stroke="black" points="607.71,-190 604.71,-194 583.71,-194 580.71,-190 508.29,-190 508.29,-154 607.71,-154 607.71,-190"/>
<text text-anchor="middle" x="558" y="-167.8" font-family="Times,serif" font-size="14.00">LayoutModule</text>
</g>
<!-- MaterialModule&#45;&gt;LayoutModule -->
<g id="edge29" class="edge">
<title>MaterialModule&#45;&gt;LayoutModule</title>
<path fill="none" stroke="black" d="M2682.24,-94C2389.75,-94 1003.14,-94 1003.14,-94 1003.14,-94 1003.14,-181 1003.14,-181 1003.14,-181 617.77,-181 617.77,-181"/>
<polygon fill="black" stroke="black" points="617.77,-177.5 607.77,-181 617.77,-184.5 617.77,-177.5"/>
</g>
<!-- PhoneticModule -->
<g id="node32" class="node">
<title>PhoneticModule</title>
<polygon fill="#8dd3c7" stroke="black" points="1538.04,-258 1535.04,-262 1514.04,-262 1511.04,-258 1429.96,-258 1429.96,-222 1538.04,-222 1538.04,-258"/>
<text text-anchor="middle" x="1484" y="-235.8" font-family="Times,serif" font-size="14.00">PhoneticModule</text>
</g>
<!-- MaterialModule&#45;&gt;PhoneticModule -->
<g id="edge34" class="edge">
<title>MaterialModule&#45;&gt;PhoneticModule</title>
<path fill="none" stroke="black" d="M2682.27,-115C2442.91,-115 1485.47,-115 1485.47,-115 1485.47,-115 1485.47,-211.82 1485.47,-211.82"/>
<polygon fill="black" stroke="black" points="1481.97,-211.82 1485.47,-221.82 1488.97,-211.82 1481.97,-211.82"/>
</g>
<!-- SynonymModule -->
<g id="node41" class="node">
<title>SynonymModule</title>
<polygon fill="#8dd3c7" stroke="black" points="3774.72,-258 3771.72,-262 3750.72,-262 3747.72,-258 3661.28,-258 3661.28,-222 3774.72,-222 3774.72,-258"/>
<text text-anchor="middle" x="3718" y="-235.8" font-family="Times,serif" font-size="14.00">SynonymModule</text>
</g>
<!-- MaterialModule&#45;&gt;SynonymModule -->
<g id="edge45" class="edge">
<title>MaterialModule&#45;&gt;SynonymModule</title>
<path fill="none" stroke="black" d="M2789.69,-104C2987.78,-104 3666.17,-104 3666.17,-104 3666.17,-104 3666.17,-211.94 3666.17,-211.94"/>
<polygon fill="black" stroke="black" points="3662.67,-211.94 3666.17,-221.94 3669.67,-211.94 3662.67,-211.94"/>
</g>
<!-- MaterialModule&#45;&gt;WordModule -->
<g id="edge51" class="edge">
<title>MaterialModule&#45;&gt;WordModule</title>
<path fill="none" stroke="black" d="M2682.5,-101C2391.44,-101 1011.58,-101 1011.58,-101 1011.58,-101 1011.58,-302 1011.58,-302 1011.58,-302 177.95,-302 177.95,-302"/>
<polygon fill="black" stroke="black" points="177.95,-298.5 167.95,-302 177.95,-305.5 177.95,-298.5"/>
</g>
<!-- SharedModule&#45;&gt;AdminModule -->
<g id="edge4" class="edge">
<title>SharedModule&#45;&gt;AdminModule</title>
<path fill="none" stroke="black" d="M2756.87,-190.22C2756.87,-190.22 2756.87,-211.73 2756.87,-211.73"/>
<polygon fill="black" stroke="black" points="2753.37,-211.73 2756.87,-221.73 2760.37,-211.73 2753.37,-211.73"/>
</g>
<!-- SharedModule&#45;&gt;AppModule -->
<g id="edge9" class="edge">
<title>SharedModule&#45;&gt;AppModule</title>
<path fill="none" stroke="black" d="M2762.95,-190.15C2762.95,-202.27 2762.95,-216 2762.95,-216 2762.95,-216 3399.06,-216 3399.06,-216 3399.06,-216 3399.06,-216.58 3399.06,-216.58"/>
<polygon fill="black" stroke="black" points="3395.56,-211.81 3399.06,-221.81 3402.56,-211.81 3395.56,-211.81"/>
</g>
<!-- SharedModule&#45;&gt;AuthModule -->
<g id="edge18" class="edge">
<title>SharedModule&#45;&gt;AuthModule</title>
<path fill="none" stroke="black" d="M2775.13,-190.03C2775.13,-196.85 2775.13,-203 2775.13,-203 2775.13,-203 4169.41,-203 4169.41,-203 4169.41,-203 4169.41,-211.93 4169.41,-211.93"/>
<polygon fill="black" stroke="black" points="4165.91,-211.93 4169.41,-221.93 4172.91,-211.93 4165.91,-211.93"/>
</g>
<!-- SharedModule&#45;&gt;DefinitionModule -->
<g id="edge22" class="edge">
<title>SharedModule&#45;&gt;DefinitionModule</title>
<path fill="none" stroke="black" d="M2705.45,-190.17C2705.45,-194.05 2705.45,-197 2705.45,-197 2705.45,-197 1142.16,-197 1142.16,-197 1142.16,-197 1142.16,-211.51 1142.16,-211.51"/>
<polygon fill="black" stroke="black" points="1138.66,-211.51 1142.16,-221.51 1145.66,-211.51 1138.66,-211.51"/>
</g>
<!-- SharedModule&#45;&gt;PhoneticModule -->
<g id="edge35" class="edge">
<title>SharedModule&#45;&gt;PhoneticModule</title>
<path fill="none" stroke="black" d="M2682.66,-160C2474.61,-160 1679.68,-160 1679.68,-160 1679.68,-160 1679.68,-240 1679.68,-240 1679.68,-240 1548.25,-240 1548.25,-240"/>
<polygon fill="black" stroke="black" points="1548.25,-236.5 1538.25,-240 1548.25,-243.5 1548.25,-236.5"/>
</g>
<!-- CardFooterComponent  -->
<g id="node37" class="node">
<title>CardFooterComponent </title>
<polygon fill="#fb8072" stroke="black" points="1848.09,-258 1699.91,-258 1699.91,-222 1848.09,-222 1848.09,-258"/>
<text text-anchor="middle" x="1774" y="-235.8" font-family="Times,serif" font-size="14.00">CardFooterComponent </text>
</g>
<!-- SharedModule&#45;&gt;CardFooterComponent  -->
<g id="edge41" class="edge">
<title>SharedModule&#45;&gt;CardFooterComponent </title>
<path fill="none" stroke="black" stroke-dasharray="5,2" d="M2682.51,-165C2486.34,-165 1774,-165 1774,-165 1774,-165 1774,-211.84 1774,-211.84"/>
<polygon fill="black" stroke="black" points="1770.5,-211.84 1774,-221.84 1777.5,-211.84 1770.5,-211.84"/>
</g>
<!-- CardHeaderComponent  -->
<g id="node38" class="node">
<title>CardHeaderComponent </title>
<polygon fill="#fb8072" stroke="black" points="2164.46,-258 2011.54,-258 2011.54,-222 2164.46,-222 2164.46,-258"/>
<text text-anchor="middle" x="2088" y="-235.8" font-family="Times,serif" font-size="14.00">CardHeaderComponent </text>
</g>
<!-- SharedModule&#45;&gt;CardHeaderComponent  -->
<g id="edge42" class="edge">
<title>SharedModule&#45;&gt;CardHeaderComponent </title>
<path fill="none" stroke="black" stroke-dasharray="5,2" d="M2682.54,-175C2531.74,-175 2088,-175 2088,-175 2088,-175 2088,-211.89 2088,-211.89"/>
<polygon fill="black" stroke="black" points="2084.5,-211.89 2088,-221.89 2091.5,-211.89 2084.5,-211.89"/>
</g>
<!-- SpinnerComponent  -->
<g id="node39" class="node">
<title>SpinnerComponent </title>
<polygon fill="#fb8072" stroke="black" points="1994.38,-258 1865.62,-258 1865.62,-222 1994.38,-222 1994.38,-258"/>
<text text-anchor="middle" x="1930" y="-235.8" font-family="Times,serif" font-size="14.00">SpinnerComponent </text>
</g>
<!-- SharedModule&#45;&gt;SpinnerComponent  -->
<g id="edge43" class="edge">
<title>SharedModule&#45;&gt;SpinnerComponent </title>
<path fill="none" stroke="black" stroke-dasharray="5,2" d="M2682.74,-170C2508.25,-170 1930,-170 1930,-170 1930,-170 1930,-211.97 1930,-211.97"/>
<polygon fill="black" stroke="black" points="1926.5,-211.97 1930,-221.97 1933.5,-211.97 1926.5,-211.97"/>
</g>
<!-- SharedModule&#45;&gt;SynonymModule -->
<g id="edge46" class="edge">
<title>SharedModule&#45;&gt;SynonymModule</title>
<path fill="none" stroke="black" d="M2769.04,-190.11C2769.04,-199.9 2769.04,-210 2769.04,-210 2769.04,-210 3663.78,-210 3663.78,-210 3663.78,-210 3663.78,-211.86 3663.78,-211.86"/>
<polygon fill="black" stroke="black" points="3660.28,-211.86 3663.78,-221.86 3667.28,-211.86 3660.28,-211.86"/>
</g>
<!-- AppComponent -->
<g id="node7" class="node">
<title>AppComponent</title>
<polygon fill="#ffffb3" stroke="black" points="3606.94,-190 3501.06,-190 3501.06,-154 3606.94,-154 3606.94,-190"/>
<text text-anchor="middle" x="3554" y="-167.8" font-family="Times,serif" font-size="14.00">AppComponent</text>
</g>
<!-- AppComponent&#45;&gt;AppModule -->
<g id="edge6" class="edge">
<title>AppComponent&#45;&gt;AppModule</title>
<path fill="none" stroke="black" d="M3554,-190.22C3554,-210.37 3554,-240 3554,-240 3554,-240 3464.92,-240 3464.92,-240"/>
<polygon fill="black" stroke="black" points="3464.92,-236.5 3454.92,-240 3464.92,-243.5 3464.92,-236.5"/>
</g>
<!-- AppComponent  -->
<g id="node10" class="node">
<title>AppComponent </title>
<polygon fill="#80b1d3" stroke="black" points="3467.44,-326 3358.56,-326 3358.56,-290 3467.44,-290 3467.44,-326"/>
<text text-anchor="middle" x="3413" y="-303.8" font-family="Times,serif" font-size="14.00">AppComponent </text>
</g>
<!-- AppModule&#45;&gt;AppComponent  -->
<g id="edge10" class="edge">
<title>AppModule&#45;&gt;AppComponent </title>
<path fill="none" stroke="black" stroke-dasharray="1,5" d="M3413,-258.22C3413,-258.22 3413,-279.73 3413,-279.73"/>
<polygon fill="black" stroke="black" points="3409.5,-279.73 3413,-289.73 3416.5,-279.73 3409.5,-279.73"/>
</g>
<!-- AppRoutingModule -->
<g id="node9" class="node">
<title>AppRoutingModule</title>
<polygon fill="#8dd3c7" stroke="black" points="3477.27,-190 3474.27,-194 3453.27,-194 3450.27,-190 3348.73,-190 3348.73,-154 3477.27,-154 3477.27,-190"/>
<text text-anchor="middle" x="3413" y="-167.8" font-family="Times,serif" font-size="14.00">AppRoutingModule</text>
</g>
<!-- AppRoutingModule&#45;&gt;AppModule -->
<g id="edge7" class="edge">
<title>AppRoutingModule&#45;&gt;AppModule</title>
<path fill="none" stroke="black" d="M3426.94,-190.22C3426.94,-190.22 3426.94,-211.73 3426.94,-211.73"/>
<polygon fill="black" stroke="black" points="3423.44,-211.73 3426.94,-221.73 3430.44,-211.73 3423.44,-211.73"/>
</g>
<!-- JwtTokenInterceptor -->
<g id="node11" class="node">
<title>JwtTokenInterceptor</title>
<ellipse fill="#fdb462" stroke="black" cx="3234" cy="-172" rx="91.45" ry="18"/>
<text text-anchor="middle" x="3234" y="-167.8" font-family="Times,serif" font-size="14.00">JwtTokenInterceptor</text>
</g>
<!-- JwtTokenInterceptor&#45;&gt;AppModule -->
<g id="edge11" class="edge">
<title>JwtTokenInterceptor&#45;&gt;AppModule</title>
<path fill="none" stroke="black" d="M3234,-190.22C3234,-210.37 3234,-240 3234,-240 3234,-240 3361.03,-240 3361.03,-240"/>
<polygon fill="black" stroke="black" points="3361.03,-243.5 3371.03,-240 3361.03,-236.5 3361.03,-243.5"/>
</g>
<!-- AuthNavComponent -->
<g id="node12" class="node">
<title>AuthNavComponent</title>
<polygon fill="#ffffb3" stroke="black" points="4483.15,-190 4350.85,-190 4350.85,-154 4483.15,-154 4483.15,-190"/>
<text text-anchor="middle" x="4417" y="-167.8" font-family="Times,serif" font-size="14.00">AuthNavComponent</text>
</g>
<!-- AuthNavComponent&#45;&gt;AuthModule -->
<g id="edge12" class="edge">
<title>AuthNavComponent&#45;&gt;AuthModule</title>
<path fill="none" stroke="black" d="M4417,-190.29C4417,-212.21 4417,-246 4417,-246 4417,-246 4237.55,-246 4237.55,-246"/>
<polygon fill="black" stroke="black" points="4237.55,-242.5 4227.55,-246 4237.55,-249.5 4237.55,-242.5"/>
</g>
<!-- AuthPage -->
<g id="node13" class="node">
<title>AuthPage</title>
<polygon fill="#ffffb3" stroke="black" points="4332.71,-190 4261.29,-190 4261.29,-154 4332.71,-154 4332.71,-190"/>
<text text-anchor="middle" x="4297" y="-167.8" font-family="Times,serif" font-size="14.00">AuthPage</text>
</g>
<!-- AuthPage&#45;&gt;AuthModule -->
<g id="edge13" class="edge">
<title>AuthPage&#45;&gt;AuthModule</title>
<path fill="none" stroke="black" d="M4297,-190.27C4297,-208.56 4297,-234 4297,-234 4297,-234 4237.69,-234 4237.69,-234"/>
<polygon fill="black" stroke="black" points="4237.69,-230.5 4227.69,-234 4237.69,-237.5 4237.69,-230.5"/>
</g>
<!-- SignInComponent -->
<g id="node14" class="node">
<title>SignInComponent</title>
<polygon fill="#ffffb3" stroke="black" points="4243.17,-190 4124.83,-190 4124.83,-154 4243.17,-154 4243.17,-190"/>
<text text-anchor="middle" x="4184" y="-167.8" font-family="Times,serif" font-size="14.00">SignInComponent</text>
</g>
<!-- SignInComponent&#45;&gt;AuthModule -->
<g id="edge14" class="edge">
<title>SignInComponent&#45;&gt;AuthModule</title>
<path fill="none" stroke="black" d="M4198.59,-190.22C4198.59,-190.22 4198.59,-211.73 4198.59,-211.73"/>
<polygon fill="black" stroke="black" points="4195.09,-211.73 4198.59,-221.73 4202.09,-211.73 4195.09,-211.73"/>
</g>
<!-- SignUpComponent -->
<g id="node15" class="node">
<title>SignUpComponent</title>
<polygon fill="#ffffb3" stroke="black" points="4107.11,-190 3982.89,-190 3982.89,-154 4107.11,-154 4107.11,-190"/>
<text text-anchor="middle" x="4045" y="-167.8" font-family="Times,serif" font-size="14.00">SignUpComponent</text>
</g>
<!-- SignUpComponent&#45;&gt;AuthModule -->
<g id="edge15" class="edge">
<title>SignUpComponent&#45;&gt;AuthModule</title>
<path fill="none" stroke="black" d="M4045,-190.02C4045,-207.37 4045,-231 4045,-231 4045,-231 4130.4,-231 4130.4,-231"/>
<polygon fill="black" stroke="black" points="4130.4,-234.5 4140.4,-231 4130.4,-227.5 4130.4,-234.5"/>
</g>
<!-- AuthPage  -->
<g id="node18" class="node">
<title>AuthPage </title>
<polygon fill="#fb8072" stroke="black" points="4221.21,-326 4146.79,-326 4146.79,-290 4221.21,-290 4221.21,-326"/>
<text text-anchor="middle" x="4184" y="-303.8" font-family="Times,serif" font-size="14.00">AuthPage </text>
</g>
<!-- AuthModule&#45;&gt;AuthPage  -->
<g id="edge19" class="edge">
<title>AuthModule&#45;&gt;AuthPage </title>
<path fill="none" stroke="black" stroke-dasharray="5,2" d="M4184,-258.22C4184,-258.22 4184,-279.73 4184,-279.73"/>
<polygon fill="black" stroke="black" points="4180.5,-279.73 4184,-289.73 4187.5,-279.73 4180.5,-279.73"/>
</g>
<!-- AuthRoutingModule -->
<g id="node17" class="node">
<title>AuthRoutingModule</title>
<polygon fill="#8dd3c7" stroke="black" points="3959.17,-190 3956.17,-194 3935.17,-194 3932.17,-190 3826.83,-190 3826.83,-154 3959.17,-154 3959.17,-190"/>
<text text-anchor="middle" x="3893" y="-167.8" font-family="Times,serif" font-size="14.00">AuthRoutingModule</text>
</g>
<!-- AuthRoutingModule&#45;&gt;AuthModule -->
<g id="edge16" class="edge">
<title>AuthRoutingModule&#45;&gt;AuthModule</title>
<path fill="none" stroke="black" d="M3893,-190.25C3893,-213.02 3893,-249 3893,-249 3893,-249 4130.43,-249 4130.43,-249"/>
<polygon fill="black" stroke="black" points="4130.43,-252.5 4140.43,-249 4130.43,-245.5 4130.43,-252.5"/>
</g>
<!-- DefinitionPage -->
<g id="node19" class="node">
<title>DefinitionPage</title>
<polygon fill="#ffffb3" stroke="black" points="1135.26,-190 1034.74,-190 1034.74,-154 1135.26,-154 1135.26,-190"/>
<text text-anchor="middle" x="1085" y="-167.8" font-family="Times,serif" font-size="14.00">DefinitionPage</text>
</g>
<!-- DefinitionPage&#45;&gt;DefinitionModule -->
<g id="edge20" class="edge">
<title>DefinitionPage&#45;&gt;DefinitionModule</title>
<path fill="none" stroke="black" d="M1085,-190.22C1085,-190.22 1085,-211.73 1085,-211.73"/>
<polygon fill="black" stroke="black" points="1081.5,-211.73 1085,-221.73 1088.5,-211.73 1081.5,-211.73"/>
</g>
<!-- DefinitionPage  -->
<g id="node21" class="node">
<title>DefinitionPage </title>
<polygon fill="#fb8072" stroke="black" points="1139.26,-326 1034.74,-326 1034.74,-290 1139.26,-290 1139.26,-326"/>
<text text-anchor="middle" x="1087" y="-303.8" font-family="Times,serif" font-size="14.00">DefinitionPage </text>
</g>
<!-- DefinitionModule&#45;&gt;DefinitionPage  -->
<g id="edge23" class="edge">
<title>DefinitionModule&#45;&gt;DefinitionPage </title>
<path fill="none" stroke="black" stroke-dasharray="5,2" d="M1087,-258.22C1087,-258.22 1087,-279.73 1087,-279.73"/>
<polygon fill="black" stroke="black" points="1083.5,-279.73 1087,-289.73 1090.5,-279.73 1083.5,-279.73"/>
</g>
<!-- DefinitionModule&#45;&gt;WordModule -->
<g id="edge49" class="edge">
<title>DefinitionModule&#45;&gt;WordModule</title>
<path fill="none" stroke="black" d="M1028.23,-240C1023.22,-240 1020.02,-240 1020.02,-240 1020.02,-240 1020.02,-314 1020.02,-314 1020.02,-314 177.77,-314 177.77,-314"/>
<polygon fill="black" stroke="black" points="177.77,-310.5 167.77,-314 177.77,-317.5 177.77,-310.5"/>
</g>
<!-- LayoutFooterComponent -->
<g id="node22" class="node">
<title>LayoutFooterComponent</title>
<polygon fill="#ffffb3" stroke="black" points="636.54,-122 479.46,-122 479.46,-86 636.54,-86 636.54,-122"/>
<text text-anchor="middle" x="558" y="-99.8" font-family="Times,serif" font-size="14.00">LayoutFooterComponent</text>
</g>
<!-- LayoutFooterComponent&#45;&gt;LayoutModule -->
<g id="edge24" class="edge">
<title>LayoutFooterComponent&#45;&gt;LayoutModule</title>
<path fill="none" stroke="black" d="M558,-122.22C558,-122.22 558,-143.73 558,-143.73"/>
<polygon fill="black" stroke="black" points="554.5,-143.73 558,-153.73 561.5,-143.73 554.5,-143.73"/>
</g>
<!-- LayoutHeaderComponent -->
<g id="node23" class="node">
<title>LayoutHeaderComponent</title>
<polygon fill="#ffffb3" stroke="black" points="461.9,-122 300.1,-122 300.1,-86 461.9,-86 461.9,-122"/>
<text text-anchor="middle" x="381" y="-99.8" font-family="Times,serif" font-size="14.00">LayoutHeaderComponent</text>
</g>
<!-- LayoutHeaderComponent&#45;&gt;LayoutModule -->
<g id="edge25" class="edge">
<title>LayoutHeaderComponent&#45;&gt;LayoutModule</title>
<path fill="none" stroke="black" d="M381,-122.02C381,-139.37 381,-163 381,-163 381,-163 498.22,-163 498.22,-163"/>
<polygon fill="black" stroke="black" points="498.22,-166.5 508.22,-163 498.22,-159.5 498.22,-166.5"/>
</g>
<!-- LayoutPage -->
<g id="node24" class="node">
<title>LayoutPage</title>
<polygon fill="#ffffb3" stroke="black" points="282.37,-122 199.63,-122 199.63,-86 282.37,-86 282.37,-122"/>
<text text-anchor="middle" x="241" y="-99.8" font-family="Times,serif" font-size="14.00">LayoutPage</text>
</g>
<!-- LayoutPage&#45;&gt;LayoutModule -->
<g id="edge26" class="edge">
<title>LayoutPage&#45;&gt;LayoutModule</title>
<path fill="none" stroke="black" d="M241,-122.22C241,-142.37 241,-172 241,-172 241,-172 498.12,-172 498.12,-172"/>
<polygon fill="black" stroke="black" points="498.12,-175.5 508.12,-172 498.12,-168.5 498.12,-175.5"/>
</g>
<!-- LayoutTabMenuComponent -->
<g id="node25" class="node">
<title>LayoutTabMenuComponent</title>
<polygon fill="#ffffb3" stroke="black" points="994.92,-122 819.08,-122 819.08,-86 994.92,-86 994.92,-122"/>
<text text-anchor="middle" x="907" y="-99.8" font-family="Times,serif" font-size="14.00">LayoutTabMenuComponent</text>
</g>
<!-- LayoutTabMenuComponent&#45;&gt;LayoutModule -->
<g id="edge27" class="edge">
<title>LayoutTabMenuComponent&#45;&gt;LayoutModule</title>
<path fill="none" stroke="black" d="M907,-122.22C907,-142.37 907,-172 907,-172 907,-172 617.63,-172 617.63,-172"/>
<polygon fill="black" stroke="black" points="617.63,-168.5 607.63,-172 617.63,-175.5 617.63,-168.5"/>
</g>
<!-- LayoutUserComponent -->
<g id="node26" class="node">
<title>LayoutUserComponent</title>
<polygon fill="#ffffb3" stroke="black" points="801.92,-122 654.08,-122 654.08,-86 801.92,-86 801.92,-122"/>
<text text-anchor="middle" x="728" y="-99.8" font-family="Times,serif" font-size="14.00">LayoutUserComponent</text>
</g>
<!-- LayoutUserComponent&#45;&gt;LayoutModule -->
<g id="edge28" class="edge">
<title>LayoutUserComponent&#45;&gt;LayoutModule</title>
<path fill="none" stroke="black" d="M728,-122.02C728,-139.37 728,-163 728,-163 728,-163 617.63,-163 617.63,-163"/>
<polygon fill="black" stroke="black" points="617.63,-159.5 607.63,-163 617.63,-166.5 617.63,-159.5"/>
</g>
<!-- LayoutPage  -->
<g id="node28" class="node">
<title>LayoutPage </title>
<polygon fill="#fb8072" stroke="black" points="601.37,-258 514.63,-258 514.63,-222 601.37,-222 601.37,-258"/>
<text text-anchor="middle" x="558" y="-235.8" font-family="Times,serif" font-size="14.00">LayoutPage </text>
</g>
<!-- LayoutModule&#45;&gt;LayoutPage  -->
<g id="edge30" class="edge">
<title>LayoutModule&#45;&gt;LayoutPage </title>
<path fill="none" stroke="black" stroke-dasharray="5,2" d="M558,-190.22C558,-190.22 558,-211.73 558,-211.73"/>
<polygon fill="black" stroke="black" points="554.5,-211.73 558,-221.73 561.5,-211.73 554.5,-211.73"/>
</g>
<!-- LayoutModule&#45;&gt;WordModule -->
<g id="edge50" class="edge">
<title>LayoutModule&#45;&gt;WordModule</title>
<path fill="none" stroke="black" d="M508.26,-181C401.94,-181 162.13,-181 162.13,-181 162.13,-181 162.13,-279.8 162.13,-279.8"/>
<polygon fill="black" stroke="black" points="158.63,-279.8 162.13,-289.8 165.63,-279.8 158.63,-279.8"/>
</g>
<!-- PhoneticAudioComponent -->
<g id="node29" class="node">
<title>PhoneticAudioComponent</title>
<polygon fill="#ffffb3" stroke="black" points="1659.82,-190 1494.18,-190 1494.18,-154 1659.82,-154 1659.82,-190"/>
<text text-anchor="middle" x="1577" y="-167.8" font-family="Times,serif" font-size="14.00">PhoneticAudioComponent</text>
</g>
<!-- PhoneticAudioComponent&#45;&gt;PhoneticModule -->
<g id="edge31" class="edge">
<title>PhoneticAudioComponent&#45;&gt;PhoneticModule</title>
<path fill="none" stroke="black" d="M1516.31,-190.22C1516.31,-190.22 1516.31,-211.73 1516.31,-211.73"/>
<polygon fill="black" stroke="black" points="1512.81,-211.73 1516.31,-221.73 1519.81,-211.73 1512.81,-211.73"/>
</g>
<!-- PhoneticOptionComponent -->
<g id="node30" class="node">
<title>PhoneticOptionComponent</title>
<polygon fill="#ffffb3" stroke="black" points="1476.71,-190 1307.29,-190 1307.29,-154 1476.71,-154 1476.71,-190"/>
<text text-anchor="middle" x="1392" y="-167.8" font-family="Times,serif" font-size="14.00">PhoneticOptionComponent</text>
</g>
<!-- PhoneticOptionComponent&#45;&gt;PhoneticModule -->
<g id="edge32" class="edge">
<title>PhoneticOptionComponent&#45;&gt;PhoneticModule</title>
<path fill="none" stroke="black" d="M1453.17,-190.22C1453.17,-190.22 1453.17,-211.73 1453.17,-211.73"/>
<polygon fill="black" stroke="black" points="1449.67,-211.73 1453.17,-221.73 1456.67,-211.73 1449.67,-211.73"/>
</g>
<!-- PhoneticPage -->
<g id="node31" class="node">
<title>PhoneticPage</title>
<polygon fill="#ffffb3" stroke="black" points="1289.21,-190 1196.79,-190 1196.79,-154 1289.21,-154 1289.21,-190"/>
<text text-anchor="middle" x="1243" y="-167.8" font-family="Times,serif" font-size="14.00">PhoneticPage</text>
</g>
<!-- PhoneticPage&#45;&gt;PhoneticModule -->
<g id="edge33" class="edge">
<title>PhoneticPage&#45;&gt;PhoneticModule</title>
<path fill="none" stroke="black" d="M1243,-190.22C1243,-210.37 1243,-240 1243,-240 1243,-240 1419.91,-240 1419.91,-240"/>
<polygon fill="black" stroke="black" points="1419.91,-243.5 1429.91,-240 1419.91,-236.5 1419.91,-243.5"/>
</g>
<!-- PhoneticPage  -->
<g id="node33" class="node">
<title>PhoneticPage </title>
<polygon fill="#fb8072" stroke="black" points="1531.71,-326 1436.29,-326 1436.29,-290 1531.71,-290 1531.71,-326"/>
<text text-anchor="middle" x="1484" y="-303.8" font-family="Times,serif" font-size="14.00">PhoneticPage </text>
</g>
<!-- PhoneticModule&#45;&gt;PhoneticPage  -->
<g id="edge36" class="edge">
<title>PhoneticModule&#45;&gt;PhoneticPage </title>
<path fill="none" stroke="black" stroke-dasharray="5,2" d="M1499.95,-258.22C1499.95,-258.22 1499.95,-279.73 1499.95,-279.73"/>
<polygon fill="black" stroke="black" points="1496.45,-279.73 1499.95,-289.73 1503.45,-279.73 1496.45,-279.73"/>
</g>
<!-- PhoneticModule&#45;&gt;WordModule -->
<g id="edge52" class="edge">
<title>PhoneticModule&#45;&gt;WordModule</title>
<path fill="none" stroke="black" d="M1468.05,-258.19C1468.05,-266.28 1468.05,-274 1468.05,-274 1468.05,-274 163.99,-274 163.99,-274 163.99,-274 163.99,-279.81 163.99,-279.81"/>
<polygon fill="black" stroke="black" points="160.49,-279.81 163.99,-289.81 167.49,-279.81 160.49,-279.81"/>
</g>
<!-- CardFooterComponent -->
<g id="node34" class="node">
<title>CardFooterComponent</title>
<polygon fill="#ffffb3" stroke="black" points="2333.59,-258 2188.41,-258 2188.41,-222 2333.59,-222 2333.59,-258"/>
<text text-anchor="middle" x="2261" y="-235.8" font-family="Times,serif" font-size="14.00">CardFooterComponent</text>
</g>
<!-- CardFooterComponent&#45;&gt;SharedModule -->
<g id="edge37" class="edge">
<title>CardFooterComponent&#45;&gt;SharedModule</title>
<path fill="none" stroke="black" d="M2261,-222C2261,-204.32 2261,-180 2261,-180 2261,-180 2672.48,-180 2672.48,-180"/>
<polygon fill="black" stroke="black" points="2672.48,-183.5 2682.48,-180 2672.48,-176.5 2672.48,-183.5"/>
</g>
<!-- CardHeaderComponent -->
<g id="node35" class="node">
<title>CardHeaderComponent</title>
<polygon fill="#ffffb3" stroke="black" points="2643.46,-258 2494.54,-258 2494.54,-222 2643.46,-222 2643.46,-258"/>
<text text-anchor="middle" x="2569" y="-235.8" font-family="Times,serif" font-size="14.00">CardHeaderComponent</text>
</g>
<!-- CardHeaderComponent&#45;&gt;SharedModule -->
<g id="edge38" class="edge">
<title>CardHeaderComponent&#45;&gt;SharedModule</title>
<path fill="none" stroke="black" d="M2643.9,-240C2685.17,-240 2728.12,-240 2728.12,-240 2728.12,-240 2728.12,-200.22 2728.12,-200.22"/>
<polygon fill="black" stroke="black" points="2731.62,-200.22 2728.12,-190.22 2724.62,-200.22 2731.62,-200.22"/>
</g>
<!-- SpinnerComponent -->
<g id="node36" class="node">
<title>SpinnerComponent</title>
<polygon fill="#ffffb3" stroke="black" points="2476.38,-258 2351.62,-258 2351.62,-222 2476.38,-222 2476.38,-258"/>
<text text-anchor="middle" x="2414" y="-235.8" font-family="Times,serif" font-size="14.00">SpinnerComponent</text>
</g>
<!-- SpinnerComponent&#45;&gt;SharedModule -->
<g id="edge39" class="edge">
<title>SpinnerComponent&#45;&gt;SharedModule</title>
<path fill="none" stroke="black" d="M2414,-221.99C2414,-205.95 2414,-185 2414,-185 2414,-185 2672.66,-185 2672.66,-185"/>
<polygon fill="black" stroke="black" points="2672.66,-188.5 2682.66,-185 2672.66,-181.5 2672.66,-188.5"/>
</g>
<!-- SynonymPage -->
<g id="node40" class="node">
<title>SynonymPage</title>
<polygon fill="#ffffb3" stroke="black" points="3765.39,-190 3668.61,-190 3668.61,-154 3765.39,-154 3765.39,-190"/>
<text text-anchor="middle" x="3717" y="-167.8" font-family="Times,serif" font-size="14.00">SynonymPage</text>
</g>
<!-- SynonymPage&#45;&gt;SynonymModule -->
<g id="edge44" class="edge">
<title>SynonymPage&#45;&gt;SynonymModule</title>
<path fill="none" stroke="black" d="M3717,-190.22C3717,-190.22 3717,-211.73 3717,-211.73"/>
<polygon fill="black" stroke="black" points="3713.5,-211.73 3717,-221.73 3720.5,-211.73 3713.5,-211.73"/>
</g>
<!-- SynonymPage  -->
<g id="node42" class="node">
<title>SynonymPage </title>
<polygon fill="#fb8072" stroke="black" points="3769.39,-326 3668.61,-326 3668.61,-290 3769.39,-290 3769.39,-326"/>
<text text-anchor="middle" x="3719" y="-303.8" font-family="Times,serif" font-size="14.00">SynonymPage </text>
</g>
<!-- SynonymModule&#45;&gt;SynonymPage  -->
<g id="edge47" class="edge">
<title>SynonymModule&#45;&gt;SynonymPage </title>
<path fill="none" stroke="black" stroke-dasharray="5,2" d="M3719,-258.22C3719,-258.22 3719,-279.73 3719,-279.73"/>
<polygon fill="black" stroke="black" points="3715.5,-279.73 3719,-289.73 3722.5,-279.73 3715.5,-279.73"/>
</g>
<!-- SynonymModule&#45;&gt;WordModule -->
<g id="edge53" class="edge">
<title>SynonymModule&#45;&gt;WordModule</title>
<path fill="none" stroke="black" d="M3665.1,-258.06C3665.1,-262.49 3665.1,-266 3665.1,-266 3665.1,-266 132.28,-266 132.28,-266 132.28,-266 132.28,-279.94 132.28,-279.94"/>
<polygon fill="black" stroke="black" points="128.78,-279.94 132.28,-289.94 135.78,-279.94 128.78,-279.94"/>
</g>
<!-- WordRoutingModule -->
<g id="node43" class="node">
<title>WordRoutingModule</title>
<polygon fill="#8dd3c7" stroke="black" points="160.04,-258 157.04,-262 136.04,-262 133.04,-258 23.96,-258 23.96,-222 160.04,-222 160.04,-258"/>
<text text-anchor="middle" x="92" y="-235.8" font-family="Times,serif" font-size="14.00">WordRoutingModule</text>
</g>
<!-- WordRoutingModule&#45;&gt;WordModule -->
<g id="edge54" class="edge">
<title>WordRoutingModule&#45;&gt;WordModule</title>
<path fill="none" stroke="black" d="M104.28,-258.22C104.28,-258.22 104.28,-279.73 104.28,-279.73"/>
<polygon fill="black" stroke="black" points="100.78,-279.73 104.28,-289.73 107.78,-279.73 100.78,-279.73"/>
</g>
</g>
</svg>
